<?xml version="1.0" encoding="UTF-8" standalone="no"?>
<!-- Created with Inkscape (http://www.inkscape.org/) -->

<svg
   width="594mm"
   height="841mm"
   viewBox="0 0 594 841"
   version="1.1"
   id="svg5"
   inkscape:version="1.1.2 (0a00cf5339, 2022-02-04)"
   sodipodi:docname="Gipper for assemble Lasercut.svg"
   xmlns:inkscape="http://www.inkscape.org/namespaces/inkscape"
   xmlns:sodipodi="http://sodipodi.sourceforge.net/DTD/sodipodi-0.dtd"
   xmlns="http://www.w3.org/2000/svg"
   xmlns:svg="http://www.w3.org/2000/svg">
  <sodipodi:namedview
     id="namedview7"
     pagecolor="#ffffff"
     bordercolor="#666666"
     borderopacity="1.0"
     inkscape:pageshadow="2"
     inkscape:pageopacity="0.0"
     inkscape:pagecheckerboard="0"
     inkscape:document-units="mm"
     showgrid="false"
     inkscape:zoom="0.18485199"
     inkscape:cx="1514.7254"
     inkscape:cy="2120.6155"
     inkscape:window-width="1920"
     inkscape:window-height="1012"
     inkscape:window-x="0"
     inkscape:window-y="0"
     inkscape:window-maximized="1"
     inkscape:current-layer="layer1" />
  <defs
     id="defs2">
    <marker
       id="DistanceX"
       orient="auto"
       refX="0"
       refY="0"
       style="overflow:visible">
      <path
         d="M 3,-3 -3,3 M 0,-5 V 5"
         style="stroke:#000000;stroke-width:0.5"
         id="path842" />
    </marker>
    <pattern
       id="Hatch"
       patternUnits="userSpaceOnUse"
       width="8"
       height="8"
       x="0"
       y="0">
      <path
         d="M8 4 l-4,4"
         stroke="#000000"
         stroke-width="0.25"
         linecap="square"
         id="path845" />
      <path
         d="M6 2 l-4,4"
         stroke="#000000"
         stroke-width="0.25"
         linecap="square"
         id="path847" />
      <path
         d="M4 0 l-4,4"
         stroke="#000000"
         stroke-width="0.25"
         linecap="square"
         id="path849" />
    </pattern>
    <symbol
       id="*Model_Space" />
    <symbol
       id="*Paper_Space" />
    <symbol
       id="*Paper_Space0" />
    <marker
       id="DistanceX-3"
       orient="auto"
       refX="0"
       refY="0"
       style="overflow:visible">
      <path
         d="M 3,-3 -3,3 M 0,-5 V 5"
         style="stroke:#000000;stroke-width:0.5"
         id="path899" />
    </marker>
    <pattern
       id="Hatch-6"
       patternUnits="userSpaceOnUse"
       width="8"
       height="8"
       x="0"
       y="0">
      <path
         d="M8 4 l-4,4"
         stroke="#000000"
         stroke-width="0.25"
         linecap="square"
         id="path902" />
      <path
         d="M6 2 l-4,4"
         stroke="#000000"
         stroke-width="0.25"
         linecap="square"
         id="path904" />
      <path
         d="M4 0 l-4,4"
         stroke="#000000"
         stroke-width="0.25"
         linecap="square"
         id="path906" />
    </pattern>
    <symbol
       id="*Model_Space-7" />
    <symbol
       id="*Paper_Space-5" />
    <symbol
       id="*Paper_Space0-3" />
    <marker
       id="DistanceX-5"
       orient="auto"
       refX="0"
       refY="0"
       style="overflow:visible">
      <path
         d="M 3,-3 -3,3 M 0,-5 V 5"
         style="stroke:#000000;stroke-width:0.5"
         id="path944" />
    </marker>
    <pattern
       id="Hatch-62"
       patternUnits="userSpaceOnUse"
       width="8"
       height="8"
       x="0"
       y="0">
      <path
         d="M8 4 l-4,4"
         stroke="#000000"
         stroke-width="0.25"
         linecap="square"
         id="path947" />
      <path
         d="M6 2 l-4,4"
         stroke="#000000"
         stroke-width="0.25"
         linecap="square"
         id="path949" />
      <path
         d="M4 0 l-4,4"
         stroke="#000000"
         stroke-width="0.25"
         linecap="square"
         id="path951" />
    </pattern>
    <symbol
       id="*Model_Space-9" />
    <symbol
       id="*Paper_Space-1" />
    <symbol
       id="*Paper_Space0-2" />
    <marker
       id="DistanceX-7"
       orient="auto"
       refX="0"
       refY="0"
       style="overflow:visible">
      <path
         d="M 3,-3 -3,3 M 0,-5 V 5"
         style="stroke:#000000;stroke-width:0.5"
         id="path989" />
    </marker>
    <pattern
       id="Hatch-0"
       patternUnits="userSpaceOnUse"
       width="8"
       height="8"
       x="0"
       y="0">
      <path
         d="M8 4 l-4,4"
         stroke="#000000"
         stroke-width="0.25"
         linecap="square"
         id="path992" />
      <path
         d="M6 2 l-4,4"
         stroke="#000000"
         stroke-width="0.25"
         linecap="square"
         id="path994" />
      <path
         d="M4 0 l-4,4"
         stroke="#000000"
         stroke-width="0.25"
         linecap="square"
         id="path996" />
    </pattern>
    <symbol
       id="*Model_Space-93" />
    <symbol
       id="*Paper_Space-6" />
    <symbol
       id="*Paper_Space0-0" />
    <marker
       id="DistanceX-6"
       orient="auto"
       refX="0"
       refY="0"
       style="overflow:visible">
      <path
         d="M 3,-3 -3,3 M 0,-5 V 5"
         style="stroke:#000000;stroke-width:0.5"
         id="path1031" />
    </marker>
    <pattern
       id="Hatch-2"
       patternUnits="userSpaceOnUse"
       width="8"
       height="8"
       x="0"
       y="0">
      <path
         d="M8 4 l-4,4"
         stroke="#000000"
         stroke-width="0.25"
         linecap="square"
         id="path1034" />
      <path
         d="M6 2 l-4,4"
         stroke="#000000"
         stroke-width="0.25"
         linecap="square"
         id="path1036" />
      <path
         d="M4 0 l-4,4"
         stroke="#000000"
         stroke-width="0.25"
         linecap="square"
         id="path1038" />
    </pattern>
    <symbol
       id="*Model_Space-6" />
    <symbol
       id="*Paper_Space-18" />
    <symbol
       id="*Paper_Space0-7" />
    <marker
       id="DistanceX-9"
       orient="auto"
       refX="0"
       refY="0"
       style="overflow:visible">
      <path
         d="M 3,-3 -3,3 M 0,-5 V 5"
         style="stroke:#000000;stroke-width:0.5"
         id="path1082" />
    </marker>
    <pattern
       id="Hatch-20"
       patternUnits="userSpaceOnUse"
       width="8"
       height="8"
       x="0"
       y="0">
      <path
         d="M8 4 l-4,4"
         stroke="#000000"
         stroke-width="0.25"
         linecap="square"
         id="path1085" />
      <path
         d="M6 2 l-4,4"
         stroke="#000000"
         stroke-width="0.25"
         linecap="square"
         id="path1087" />
      <path
         d="M4 0 l-4,4"
         stroke="#000000"
         stroke-width="0.25"
         linecap="square"
         id="path1089" />
    </pattern>
    <symbol
       id="*Model_Space-2" />
    <symbol
       id="*Paper_Space-3" />
    <symbol
       id="*Paper_Space0-75" />
    <marker
       id="DistanceX-92"
       orient="auto"
       refX="0"
       refY="0"
       style="overflow:visible">
      <path
         d="M 3,-3 -3,3 M 0,-5 V 5"
         style="stroke:#000000;stroke-width:0.5"
         id="path1133" />
    </marker>
    <pattern
       id="Hatch-28"
       patternUnits="userSpaceOnUse"
       width="8"
       height="8"
       x="0"
       y="0">
      <path
         d="M8 4 l-4,4"
         stroke="#000000"
         stroke-width="0.25"
         linecap="square"
         id="path1136" />
      <path
         d="M6 2 l-4,4"
         stroke="#000000"
         stroke-width="0.25"
         linecap="square"
         id="path1138" />
      <path
         d="M4 0 l-4,4"
         stroke="#000000"
         stroke-width="0.25"
         linecap="square"
         id="path1140" />
    </pattern>
    <symbol
       id="*Model_Space-97" />
    <symbol
       id="*Paper_Space-36" />
    <symbol
       id="*Paper_Space0-1" />
    <marker
       id="DistanceX-2"
       orient="auto"
       refX="0"
       refY="0"
       style="overflow:visible">
      <path
         d="M 3,-3 -3,3 M 0,-5 V 5"
         style="stroke:#000000;stroke-width:0.5"
         id="path1184" />
    </marker>
    <pattern
       id="Hatch-9"
       patternUnits="userSpaceOnUse"
       width="8"
       height="8"
       x="0"
       y="0">
      <path
         d="M8 4 l-4,4"
         stroke="#000000"
         stroke-width="0.25"
         linecap="square"
         id="path1187" />
      <path
         d="M6 2 l-4,4"
         stroke="#000000"
         stroke-width="0.25"
         linecap="square"
         id="path1189" />
      <path
         d="M4 0 l-4,4"
         stroke="#000000"
         stroke-width="0.25"
         linecap="square"
         id="path1191" />
    </pattern>
    <symbol
       id="*Model_Space-3" />
    <symbol
       id="*Paper_Space-19" />
    <symbol
       id="*Paper_Space0-4" />
    <marker
       id="DistanceX-78"
       orient="auto"
       refX="0"
       refY="0"
       style="overflow:visible">
      <path
         d="M 3,-3 -3,3 M 0,-5 V 5"
         style="stroke:#000000;stroke-width:0.5"
         id="path1235" />
    </marker>
    <pattern
       id="Hatch-4"
       patternUnits="userSpaceOnUse"
       width="8"
       height="8"
       x="0"
       y="0">
      <path
         d="M8 4 l-4,4"
         stroke="#000000"
         stroke-width="0.25"
         linecap="square"
         id="path1238" />
      <path
         d="M6 2 l-4,4"
         stroke="#000000"
         stroke-width="0.25"
         linecap="square"
         id="path1240" />
      <path
         d="M4 0 l-4,4"
         stroke="#000000"
         stroke-width="0.25"
         linecap="square"
         id="path1242" />
    </pattern>
    <symbol
       id="*Model_Space-5" />
    <symbol
       id="*Paper_Space-0" />
    <symbol
       id="*Paper_Space0-36" />
    <marker
       id="DistanceX-1"
       orient="auto"
       refX="0"
       refY="0"
       style="overflow:visible">
      <path
         d="M 3,-3 -3,3 M 0,-5 V 5"
         style="stroke:#000000;stroke-width:0.5"
         id="path1283" />
    </marker>
    <pattern
       id="Hatch-06"
       patternUnits="userSpaceOnUse"
       width="8"
       height="8"
       x="0"
       y="0">
      <path
         d="M8 4 l-4,4"
         stroke="#000000"
         stroke-width="0.25"
         linecap="square"
         id="path1286" />
      <path
         d="M6 2 l-4,4"
         stroke="#000000"
         stroke-width="0.25"
         linecap="square"
         id="path1288" />
      <path
         d="M4 0 l-4,4"
         stroke="#000000"
         stroke-width="0.25"
         linecap="square"
         id="path1290" />
    </pattern>
    <symbol
       id="*Model_Space-32" />
    <symbol
       id="*Paper_Space-06" />
    <symbol
       id="*Paper_Space0-15" />
    <marker
       id="DistanceX-54"
       orient="auto"
       refX="0"
       refY="0"
       style="overflow:visible">
      <path
         d="M 3,-3 -3,3 M 0,-5 V 5"
         style="stroke:#000000;stroke-width:0.5"
         id="path1331" />
    </marker>
    <pattern
       id="Hatch-7"
       patternUnits="userSpaceOnUse"
       width="8"
       height="8"
       x="0"
       y="0">
      <path
         d="M8 4 l-4,4"
         stroke="#000000"
         stroke-width="0.25"
         linecap="square"
         id="path1334" />
      <path
         d="M6 2 l-4,4"
         stroke="#000000"
         stroke-width="0.25"
         linecap="square"
         id="path1336" />
      <path
         d="M4 0 l-4,4"
         stroke="#000000"
         stroke-width="0.25"
         linecap="square"
         id="path1338" />
    </pattern>
    <symbol
       id="*Model_Space-65" />
    <symbol
       id="*Paper_Space-69" />
    <symbol
       id="*Paper_Space0-37" />
    <marker
       id="DistanceX-4"
       orient="auto"
       refX="0"
       refY="0"
       style="overflow:visible">
      <path
         d="M 3,-3 -3,3 M 0,-5 V 5"
         style="stroke:#000000;stroke-width:0.5"
         id="path1379" />
    </marker>
    <pattern
       id="Hatch-5"
       patternUnits="userSpaceOnUse"
       width="8"
       height="8"
       x="0"
       y="0">
      <path
         d="M8 4 l-4,4"
         stroke="#000000"
         stroke-width="0.25"
         linecap="square"
         id="path1382" />
      <path
         d="M6 2 l-4,4"
         stroke="#000000"
         stroke-width="0.25"
         linecap="square"
         id="path1384" />
      <path
         d="M4 0 l-4,4"
         stroke="#000000"
         stroke-width="0.25"
         linecap="square"
         id="path1386" />
    </pattern>
    <symbol
       id="*Model_Space-25" />
    <symbol
       id="*Paper_Space-4" />
    <symbol
       id="*Paper_Space0-74" />
    <marker
       id="DistanceX-43"
       orient="auto"
       refX="0"
       refY="0"
       style="overflow:visible">
      <path
         d="M 3,-3 -3,3 M 0,-5 V 5"
         style="stroke:#000000;stroke-width:0.5"
         id="path1427" />
    </marker>
    <pattern
       id="Hatch-07"
       patternUnits="userSpaceOnUse"
       width="8"
       height="8"
       x="0"
       y="0">
      <path
         d="M8 4 l-4,4"
         stroke="#000000"
         stroke-width="0.25"
         linecap="square"
         id="path1430" />
      <path
         d="M6 2 l-4,4"
         stroke="#000000"
         stroke-width="0.25"
         linecap="square"
         id="path1432" />
      <path
         d="M4 0 l-4,4"
         stroke="#000000"
         stroke-width="0.25"
         linecap="square"
         id="path1434" />
    </pattern>
    <symbol
       id="*Model_Space-8" />
    <symbol
       id="*Paper_Space-68" />
    <symbol
       id="*Paper_Space0-8" />
  </defs>
  <g
     inkscape:label="Capa 1"
     inkscape:groupmode="layer"
     id="layer1">
    <g
       id="g1575"
       inkscape:label="1"
       transform="matrix(0.26458333,0,0,0.26458333,1.0145053,2.2002624)">
      <g
         id="g1577">
        <path
           d="M 32.16,96.160004 V 400.48001"
           style="fill:none;stroke:#000000;stroke-width:0.96;stroke-linecap:round;stroke-linejoin:round;stroke-miterlimit:10;stroke-dasharray:none;stroke-opacity:1"
           id="path1579" />
      </g>
      <g
         id="g1581"
         transform="translate(32.16,400.48001)">
        <path
           d="m 0,0 0.16,4.8 0.64,4.64 0.8,4.8 1.44,4.479999 1.6,4.480002 1.92,4.479999 2.4,4.16 2.72,3.84 2.88,3.84 3.2,3.520001 3.520001,3.200001 3.84,2.879997 3.839998,2.720001 4.16,2.400002 4.479999,1.919998 4.480004,1.599998 4.479999,1.440003 L 51.360001,60 56,60.639999 l 4.799999,0.16"
           style="fill:none;stroke:#000000;stroke-width:0.96;stroke-linecap:round;stroke-linejoin:bevel;stroke-miterlimit:10;stroke-dasharray:none;stroke-opacity:1"
           id="path1583" />
      </g>
      <g
         id="g1585">
        <path
           d="M 92.959999,461.44 H 336.48001"
           style="fill:none;stroke:#000000;stroke-width:0.96;stroke-linecap:round;stroke-linejoin:round;stroke-miterlimit:10;stroke-dasharray:none;stroke-opacity:1"
           id="path1587" />
      </g>
      <g
         id="g1589"
         transform="translate(336.48001,461.28)">
        <path
           d="m 0,0 4.8,-0.16 4.64,-0.64 4.8,-0.8 4.479999,-1.44 4.480002,-1.6 4.479999,-1.92 4.16,-2.4 3.84,-2.72 3.84,-2.88 3.520001,-3.2 3.200001,-3.520001 2.879997,-3.84 2.720001,-3.839998 2.400002,-4.16 1.919998,-4.479999 1.599998,-4.480004 1.440003,-4.479999 L 60,-51.360001 60.639999,-56 l 0.16,-4.799999"
           style="fill:none;stroke:#000000;stroke-width:0.96;stroke-linecap:round;stroke-linejoin:bevel;stroke-miterlimit:10;stroke-dasharray:none;stroke-opacity:1"
           id="path1591" />
      </g>
      <g
         id="g1593">
        <path
           d="M 397.28,400.48001 V 96.160004"
           style="fill:none;stroke:#000000;stroke-width:0.96;stroke-linecap:round;stroke-linejoin:round;stroke-miterlimit:10;stroke-dasharray:none;stroke-opacity:1"
           id="path1595" />
      </g>
      <g
         id="g1597"
         transform="translate(397.28,96.160004)">
        <path
           d="m 0,0 -0.16,-4.8 -0.64,-4.64 -0.8,-4.8 -1.44,-4.479999 -1.6,-4.480002 -1.92,-4.479999 -2.4,-4.16 -2.72,-3.84 -2.88,-3.84 -3.2,-3.520001 -3.520001,-3.200001 -3.84,-2.879997 -3.839998,-2.720001 -4.16,-2.400002 -4.479999,-1.919998 -4.480004,-1.599998 -4.479999,-1.440003 L -51.360001,-60 -56,-60.639999 l -4.799999,-0.16"
           style="fill:none;stroke:#000000;stroke-width:0.96;stroke-linecap:round;stroke-linejoin:bevel;stroke-miterlimit:10;stroke-dasharray:none;stroke-opacity:1"
           id="path1599" />
      </g>
      <g
         id="g1601">
        <path
           d="M 336.48001,35.200001 H 92.959999"
           style="fill:none;stroke:#000000;stroke-width:0.96;stroke-linecap:round;stroke-linejoin:round;stroke-miterlimit:10;stroke-dasharray:none;stroke-opacity:1"
           id="path1603" />
      </g>
      <g
         id="g1605"
         transform="translate(92.959999,35.360001)">
        <path
           d="m 0,0 -4.8,0.16 -4.64,0.64 -4.8,0.8 -4.479999,1.44 -4.480002,1.6 -4.479999,1.92 -4.16,2.4 -3.84,2.72 -3.84,2.88 -3.520001,3.2 -3.200001,3.520001 -2.879997,3.84 -2.720001,3.839998 -2.400002,4.16 -1.919998,4.479999 -1.599998,4.480004 -1.440003,4.479999 L -60,51.360001 -60.639999,56 l -0.16,4.799999"
           style="fill:none;stroke:#000000;stroke-width:0.96;stroke-linecap:round;stroke-linejoin:bevel;stroke-miterlimit:10;stroke-dasharray:none;stroke-opacity:1"
           id="path1607" />
      </g>
      <g
         id="g1609">
        <path
           d="m 32.16,96.160004 h 0.16"
           style="fill:none;stroke:#000000;stroke-width:0.96;stroke-linecap:round;stroke-linejoin:round;stroke-miterlimit:10;stroke-dasharray:none;stroke-opacity:1"
           id="path1611" />
      </g>
      <g
         id="g1613">
        <path
           d="M 92.959999,309.28 V 126.56 H 336.48001 v 182.72 z"
           style="fill:none;stroke:#000000;stroke-width:0.96;stroke-linecap:round;stroke-linejoin:round;stroke-miterlimit:10;stroke-dasharray:none;stroke-opacity:1"
           id="path1615" />
      </g>
      <g
         id="g1617"
         transform="translate(269.28,412.79999)">
        <path
           d="m 0,0 2.24,-0.16 2.24,-0.64 1.92,-0.8 1.92,-1.28 1.76,-1.44 1.28,-1.92 1.12,-1.92 0.64,-2.08 0.48,-2.24 v -2.24 l -0.48,-2.239999 -0.64,-2.080002 -1.12,-1.919998 -1.28,-1.92 L 8.32,-24.32 6.4,-25.6 l -1.92,-0.8 -2.24,-0.640001 -2.24,-0.16 -2.24,0.16 -2.24,0.640001 -1.92,0.8 -1.92,1.28 -1.76,1.440001 -1.28,1.92 -1.12,1.919998 -0.64,2.080002 -0.48,2.239999 v 2.24 l 0.48,2.24 0.64,2.08 1.12,1.92 1.28,1.92 1.76,1.44 1.92,1.28 1.92,0.8 2.24,0.64 z"
           style="fill:none;stroke:#000000;stroke-width:0.96;stroke-linecap:round;stroke-linejoin:bevel;stroke-miterlimit:10;stroke-dasharray:none;stroke-opacity:1"
           id="path1619" />
      </g>
      <g
         id="g1621"
         transform="translate(164.96001,414.72)">
        <path
           d="m 0,0 2.24,-0.16 2.24,-0.64 1.92,-0.8 1.92,-1.28 1.76,-1.44 1.28,-1.92 1.12,-1.92 0.64,-2.08 0.48,-2.24 v -2.24 l -0.48,-2.239999 -0.64,-2.080002 -1.12,-1.919998 -1.28,-1.92 L 8.32,-24.32 6.4,-25.6 l -1.92,-0.8 -2.24,-0.640001 -2.24,-0.16 -2.24,0.16 -2.24,0.640001 -1.92,0.8 -1.92,1.28 -1.76,1.440001 -1.28,1.92 -1.12,1.919998 -0.64,2.080002 -0.48,2.239999 v 2.24 l 0.48,2.24 0.64,2.08 1.12,1.92 1.28,1.92 1.76,1.44 1.92,1.28 1.92,0.8 2.24,0.64 z"
           style="fill:none;stroke:#000000;stroke-width:0.96;stroke-linecap:round;stroke-linejoin:bevel;stroke-miterlimit:10;stroke-dasharray:none;stroke-opacity:1"
           id="path1623" />
      </g>
      <g
         id="g1625"
         transform="translate(330.07999,412.79999)">
        <path
           d="m 0,0 2.24,-0.16 2.24,-0.64 1.92,-0.8 1.92,-1.28 1.76,-1.44 1.28,-1.92 1.12,-1.92 0.64,-2.08 0.48,-2.24 v -2.24 l -0.48,-2.239999 -0.64,-2.080002 -1.12,-1.919998 -1.28,-1.92 L 8.32,-24.32 6.4,-25.6 l -1.92,-0.8 -2.24,-0.640001 -2.24,-0.16 -2.24,0.16 -2.24,0.640001 -1.92,0.8 -1.92,1.28 -1.76,1.440001 -1.28,1.92 -1.12,1.919998 -0.64,2.080002 -0.48,2.239999 v 2.24 l 0.48,2.24 0.64,2.08 1.12,1.92 1.28,1.92 1.76,1.44 1.92,1.28 1.92,0.8 2.24,0.64 z"
           style="fill:none;stroke:#000000;stroke-width:0.96;stroke-linecap:round;stroke-linejoin:bevel;stroke-miterlimit:10;stroke-dasharray:none;stroke-opacity:1"
           id="path1627" />
      </g>
      <g
         id="g1629"
         transform="translate(106.24,415.67999)">
        <path
           d="m 0,0 2.24,-0.16 2.24,-0.64 1.92,-0.8 1.92,-1.28 1.76,-1.44 1.28,-1.92 1.12,-1.92 0.64,-2.08 0.48,-2.24 v -2.24 l -0.48,-2.239999 -0.64,-2.080002 -1.12,-1.919998 -1.28,-1.92 L 8.32,-24.32 6.4,-25.6 l -1.92,-0.8 -2.24,-0.640001 -2.24,-0.16 -2.24,0.16 -2.24,0.640001 -1.92,0.8 -1.92,1.28 -1.76,1.440001 -1.28,1.92 -1.12,1.919998 -0.64,2.080002 -0.48,2.239999 v 2.24 l 0.48,2.24 0.64,2.08 1.12,1.92 1.28,1.92 1.76,1.44 1.92,1.28 1.92,0.8 2.24,0.64 z"
           style="fill:none;stroke:#000000;stroke-width:0.96;stroke-linecap:round;stroke-linejoin:bevel;stroke-miterlimit:10;stroke-dasharray:none;stroke-opacity:1"
           id="path1631" />
      </g>
    </g>
    <g
       id="g1668"
       inkscape:label="2"
       transform="matrix(0.26458333,0,0,0.26458333,101.66202,9.2064276)">
      <g
         id="g1670">
        <path
           d="M 397.28,364.95999 V 91.199997"
           style="fill:none;stroke:#000000;stroke-width:0.96;stroke-linecap:round;stroke-linejoin:round;stroke-miterlimit:10;stroke-dasharray:none;stroke-opacity:1"
           id="path1672" />
      </g>
      <g
         id="g1674"
         transform="translate(397.12,91.199997)">
        <path
           d="m 0,0 -0.16,-4.8 -0.64,-4.64 -0.8,-4.8 -1.44,-4.479999 -1.6,-4.480002 -1.92,-4.479999 -2.4,-4.16 -2.72,-3.84 -2.88,-3.84 -3.2,-3.520001 -3.520001,-3.200001 -3.84,-2.879997 -3.839998,-2.720001 -4.16,-2.400002 -4.479999,-1.919998 -4.480004,-1.599998 -4.479999,-1.440003 L -51.360001,-60 -56,-60.639999 l -4.799999,-0.16"
           style="fill:none;stroke:#000000;stroke-width:0.96;stroke-linecap:round;stroke-linejoin:bevel;stroke-miterlimit:10;stroke-dasharray:none;stroke-opacity:1"
           id="path1676" />
      </g>
      <g
         id="g1678">
        <path
           d="M 336.32001,30.4 H 93.120003"
           style="fill:none;stroke:#000000;stroke-width:0.96;stroke-linecap:round;stroke-linejoin:round;stroke-miterlimit:10;stroke-dasharray:none;stroke-opacity:1"
           id="path1680" />
      </g>
      <g
         id="g1682"
         transform="translate(93.120003,30.4)">
        <path
           d="m 0,0 -4.8,0.16 -4.64,0.64 -4.8,0.8 -4.479999,1.44 -4.480002,1.6 -4.479999,1.92 -4.16,2.4 -3.84,2.72 -3.84,2.88 -3.520001,3.2 -3.200001,3.520001 -2.879997,3.84 -2.720001,3.839998 -2.400002,4.16 -1.919998,4.479999 -1.599998,4.480004 -1.440003,4.479999 L -60,51.360001 -60.639999,56 l -0.16,4.799999"
           style="fill:none;stroke:#000000;stroke-width:0.96;stroke-linecap:round;stroke-linejoin:bevel;stroke-miterlimit:10;stroke-dasharray:none;stroke-opacity:1"
           id="path1684" />
      </g>
      <g
         id="g1686">
        <path
           d="M 32.16,91.199997 V 364.95999 h 365.12"
           style="fill:none;stroke:#000000;stroke-width:0.96;stroke-linecap:round;stroke-linejoin:round;stroke-miterlimit:10;stroke-dasharray:none;stroke-opacity:1"
           id="path1688" />
      </g>
      <g
         id="g1690">
        <path
           d="M 93.120003,304.16 V 121.6 H 336.32001 v 182.56 z"
           style="fill:none;stroke:#000000;stroke-width:0.96;stroke-linecap:round;stroke-linejoin:round;stroke-miterlimit:10;stroke-dasharray:none;stroke-opacity:1"
           id="path1692" />
      </g>
    </g>
    <g
       id="g1713"
       inkscape:label="3"
       transform="matrix(0.26458333,0,0,0.26458333,100.67523,102.50001)">
      <g
         id="g1715">
        <path
           d="M 397.28,364.95999 V 91.040001"
           style="fill:none;stroke:#000000;stroke-width:0.96;stroke-linecap:round;stroke-linejoin:round;stroke-miterlimit:10;stroke-dasharray:none;stroke-opacity:1"
           id="path1717" />
      </g>
      <g
         id="g1719"
         transform="translate(397.28,91.040001)">
        <path
           d="m 0,0 -0.16,-4.8 -0.64,-4.64 -0.8,-4.8 -1.44,-4.479999 -1.6,-4.480002 -1.92,-4.479999 -2.4,-4.16 -2.72,-3.84 -2.88,-3.84 -3.2,-3.520001 -3.520001,-3.200001 -3.84,-2.879997 -3.839998,-2.720001 -4.16,-2.400002 -4.479999,-1.919998 -4.480004,-1.599998 -4.479999,-1.440003 L -51.360001,-60 -56,-60.639999 l -4.799999,-0.16"
           style="fill:none;stroke:#000000;stroke-width:0.96;stroke-linecap:round;stroke-linejoin:bevel;stroke-miterlimit:10;stroke-dasharray:none;stroke-opacity:1"
           id="path1721" />
      </g>
      <g
         id="g1723">
        <path
           d="M 336.48001,30.24 H 92.959999"
           style="fill:none;stroke:#000000;stroke-width:0.96;stroke-linecap:round;stroke-linejoin:round;stroke-miterlimit:10;stroke-dasharray:none;stroke-opacity:1"
           id="path1725" />
      </g>
      <g
         id="g1727"
         transform="translate(92.959999,30.24)">
        <path
           d="m 0,0 -4.8,0.16 -4.64,0.64 -4.8,0.8 -4.479999,1.44 -4.480002,1.6 -4.479999,1.92 -4.16,2.4 -3.84,2.72 -3.84,2.88 -3.520001,3.2 -3.200001,3.520001 -2.879997,3.84 -2.720001,3.839998 -2.400002,4.16 -1.919998,4.479999 -1.599998,4.480004 -1.440003,4.479999 L -60,51.360001 -60.639999,56 l -0.16,4.799999"
           style="fill:none;stroke:#000000;stroke-width:0.96;stroke-linecap:round;stroke-linejoin:bevel;stroke-miterlimit:10;stroke-dasharray:none;stroke-opacity:1"
           id="path1729" />
      </g>
      <g
         id="g1731">
        <path
           d="M 32.16,91.040001 V 364.95999 h 365.12"
           style="fill:none;stroke:#000000;stroke-width:0.96;stroke-linecap:round;stroke-linejoin:round;stroke-miterlimit:10;stroke-dasharray:none;stroke-opacity:1"
           id="path1733" />
      </g>
      <g
         id="g1735">
        <path
           d="M 92.959999,304 V 121.44 H 336.48001 V 304 Z"
           style="fill:none;stroke:#000000;stroke-width:0.96;stroke-linecap:round;stroke-linejoin:round;stroke-miterlimit:10;stroke-dasharray:none;stroke-opacity:1"
           id="path1737" />
      </g>
    </g>
    <g
       id="g1758"
       inkscape:label="4"
       transform="matrix(0.26458333,0,0,0.26458333,0.30289676,121.93116)">
      <g
         id="g1760">
        <path
           d="M 93.120003,121.76 H 336.32001 V 304.32001 H 245.11999 V 365.12 H 397.12 V 91.360001"
           style="fill:none;stroke:#000000;stroke-width:0.96;stroke-linecap:round;stroke-linejoin:round;stroke-miterlimit:10;stroke-dasharray:none;stroke-opacity:1"
           id="path1762" />
      </g>
      <g
         id="g1764"
         transform="translate(397.12,91.360001)">
        <path
           d="m 0,0 -0.16,-4.8 -0.64,-4.64 -0.8,-4.8 -1.44,-4.479999 -1.6,-4.480002 -1.92,-4.479999 -2.4,-4.16 -2.72,-3.84 -2.88,-3.84 -3.2,-3.520001 -3.520001,-3.200001 -3.84,-2.879997 -3.839998,-2.720001 -4.16,-2.400002 -4.479999,-1.919998 -4.480004,-1.599998 -4.479999,-1.440003 L -51.360001,-60 -56,-60.639999 l -4.799999,-0.16"
           style="fill:none;stroke:#000000;stroke-width:0.96;stroke-linecap:round;stroke-linejoin:bevel;stroke-miterlimit:10;stroke-dasharray:none;stroke-opacity:1"
           id="path1766" />
      </g>
      <g
         id="g1768">
        <path
           d="M 336.32001,30.559999 H 93.120003"
           style="fill:none;stroke:#000000;stroke-width:0.96;stroke-linecap:round;stroke-linejoin:round;stroke-miterlimit:10;stroke-dasharray:none;stroke-opacity:1"
           id="path1770" />
      </g>
      <g
         id="g1772"
         transform="translate(93.120003,30.559999)">
        <path
           d="m 0,0 -4.8,0.16 -4.64,0.64 -4.8,0.8 -4.479999,1.44 -4.480002,1.6 -4.479999,1.92 -4.16,2.4 -3.84,2.72 -3.84,2.88 -3.520001,3.2 -3.200001,3.520001 -2.879997,3.84 -2.720001,3.839998 -2.400002,4.16 -1.919998,4.479999 -1.599998,4.480004 -1.440003,4.479999 L -60,51.360001 -60.639999,56 l -0.16,4.799999"
           style="fill:none;stroke:#000000;stroke-width:0.96;stroke-linecap:round;stroke-linejoin:bevel;stroke-miterlimit:10;stroke-dasharray:none;stroke-opacity:1"
           id="path1774" />
      </g>
      <g
         id="g1776">
        <path
           d="M 32.32,91.360001 V 365.12 H 184.32001 V 304.32001 H 93.120003 V 121.76"
           style="fill:none;stroke:#000000;stroke-width:0.96;stroke-linecap:round;stroke-linejoin:round;stroke-miterlimit:10;stroke-dasharray:none;stroke-opacity:1"
           id="path1778" />
      </g>
    </g>
    <g
       id="g1797"
       inkscape:label="5"
       transform="matrix(0.26458333,0,0,0.26458333,310.60324,1.3762461)">
      <g
         id="g1799">
        <path
           d="M 8.64,136.32001 V 985.91998"
           style="fill:none;stroke:#000000;stroke-width:0.96;stroke-linecap:round;stroke-linejoin:round;stroke-miterlimit:10;stroke-dasharray:none;stroke-opacity:1"
           id="path1801" />
      </g>
      <g
         id="g1803"
         transform="translate(8.64,985.91998)">
        <path
           d="m 0,0 0.16,5.6 0.64,5.44 0.8,5.44 1.28,5.44 1.6,5.280001 1.92,5.279999 2.4,4.959999 2.56,4.960003 2.88,4.639999 3.36,4.639999 3.520001,4.16 3.839998,4.16 4,3.68 4.32,3.519997 4.479999,3.360001 4.800003,2.880004 L 47.360001,76 52.48,78.400002 57.599998,80.32 63.040001,81.919998 68.32,83.199997 73.919998,84 l 5.440003,0.639999 5.599998,0.160004 5.599999,-0.160004 L 96,84 101.6,83.199997 106.88,81.919998 112.32,80.32 117.44,78.400002 122.56,76 l 4.96,-2.559998 4.64,-2.880004 4.48,-3.360001 4.32001,-3.519997 4,-3.68 3.83999,-4.16 3.52001,-4.16 3.35998,-4.639999 2.88001,-4.639999 2.55999,-4.960003 L 163.52,32.48 l 1.92,-5.279999 1.59999,-5.280001 1.28002,-5.44 0.79998,-5.44 0.64,-5.44 L 169.92,0"
           style="fill:none;stroke:#000000;stroke-width:0.96;stroke-linecap:round;stroke-linejoin:bevel;stroke-miterlimit:10;stroke-dasharray:none;stroke-opacity:1"
           id="path1805" />
      </g>
      <g
         id="g1807">
        <path
           d="M 178.56,985.91998 V 136.32001"
           style="fill:none;stroke:#000000;stroke-width:0.96;stroke-linecap:round;stroke-linejoin:round;stroke-miterlimit:10;stroke-dasharray:none;stroke-opacity:1"
           id="path1809" />
      </g>
      <g
         id="g1811"
         transform="translate(178.56,136.32001)">
        <path
           d="m 0,0 -0.16,-5.6 -0.64,-5.44 -0.8,-5.44 -1.28,-5.44 -1.6,-5.280001 -1.92,-5.279999 -2.4,-4.959999 -2.56,-4.960003 -2.88,-4.639999 -3.36,-4.639999 -3.520001,-4.16 -3.839998,-4.16 -4,-3.68 -4.32,-3.519997 -4.479999,-3.360001 -4.640004,-2.880004 L -47.360001,-76 -52.48,-78.400002 -57.599998,-80.32 -63.040001,-81.919998 -68.32,-83.199997 -73.919998,-84 l -5.440003,-0.639999 -5.599998,-0.160004 -5.599999,0.160004 L -96,-84 l -5.6,0.800003 -5.28,1.279999 -5.44,1.599998 -5.12,1.919998 -5.12,2.400002 -4.8,2.559998 -4.8,2.880004 -4.48,3.360001 -4.32001,3.519997 -4,3.68 -3.83999,4.16 -3.52001,4.16 -3.35998,4.639999 -2.88001,4.639999 -2.55999,4.960003 -2.40001,4.959999 -1.92,5.279999 -1.59999,5.280001 -1.28002,5.44 -0.79998,5.44 -0.64,5.44 L -169.92,0"
           style="fill:none;stroke:#000000;stroke-width:0.96;stroke-linecap:round;stroke-linejoin:bevel;stroke-miterlimit:10;stroke-dasharray:none;stroke-opacity:1"
           id="path1813" />
      </g>
      <g
         id="g1815">
        <path
           d="M 8.64,136.32001 H 8.8"
           style="fill:none;stroke:#000000;stroke-width:0.96;stroke-linecap:round;stroke-linejoin:round;stroke-miterlimit:10;stroke-dasharray:none;stroke-opacity:1"
           id="path1817" />
      </g>
      <g
         id="g1819"
         transform="translate(93.599998,1017.76)">
        <path
           d="m 0,0 3.52,-0.16 3.36,-0.64 3.36,-0.8 3.2,-1.28 3.04,-1.6 2.720001,-2.08 2.719999,-2.24 2.4,-2.4 2.08,-2.72 1.76,-3.039999 L 29.6,-20 30.719999,-23.360001 31.360001,-26.719999 31.84,-30.08 v -3.519998 L 31.360001,-36.959999 30.719999,-40.32 29.6,-43.68 28.16,-46.720001 26.4,-49.759998 24.32,-52.48 21.92,-54.880001 19.200001,-57.119999 16.48,-59.200001 13.44,-60.799999 10.24,-62.080002 6.88,-62.880001 3.52,-63.52 0,-63.68 l -3.52,0.16 -3.36,0.639999 -3.36,0.799999 -3.2,1.280003 -3.04,1.599998 -2.720001,2.080002 -2.719999,2.239998 -2.4,2.400001 -2.08,2.720002 -1.76,3.039997 -1.44,3.040001 -1.119999,3.36 -0.640002,3.360001 -0.479999,3.360001 V -30.08 l 0.479999,3.360001 0.640002,3.359998 L -29.6,-20 l 1.44,3.040001 1.76,3.039999 2.08,2.72 2.4,2.4 2.719999,2.24 2.720001,2.08 3.04,1.6 3.2,1.28 3.36,0.8 3.36,0.64 z"
           style="fill:none;stroke:#000000;stroke-width:0.96;stroke-linecap:round;stroke-linejoin:bevel;stroke-miterlimit:10;stroke-dasharray:none;stroke-opacity:1"
           id="path1821" />
      </g>
      <g
         id="g1823"
         transform="translate(92.32,592)">
        <path
           d="m 0,0 3.52,-0.16 3.36,-0.64 3.36,-0.8 3.2,-1.28 3.04,-1.6 2.720001,-2.08 2.719999,-2.24 2.4,-2.4 2.08,-2.72 1.76,-3.039999 L 29.6,-20 30.719999,-23.360001 31.360001,-26.719999 31.84,-30.08 v -3.519998 L 31.360001,-36.959999 30.719999,-40.32 29.6,-43.68 28.16,-46.720001 26.4,-49.759998 24.32,-52.48 21.92,-54.880001 19.200001,-57.119999 16.48,-59.200001 13.44,-60.799999 10.24,-62.080002 6.88,-62.880001 3.52,-63.52 0,-63.68 l -3.52,0.16 -3.36,0.639999 -3.36,0.799999 -3.2,1.280003 -3.04,1.599998 -2.720001,2.080002 -2.719999,2.239998 -2.4,2.400001 -2.08,2.720002 -1.76,3.039997 -1.44,3.040001 -1.119999,3.36 -0.640002,3.360001 -0.479999,3.360001 V -30.08 l 0.479999,3.360001 0.640002,3.359998 L -29.6,-20 l 1.44,3.040001 1.76,3.039999 2.08,2.72 2.4,2.4 2.719999,2.24 2.720001,2.08 3.04,1.6 3.2,1.28 3.36,0.8 3.36,0.64 z"
           style="fill:none;stroke:#000000;stroke-width:0.96;stroke-linecap:round;stroke-linejoin:bevel;stroke-miterlimit:10;stroke-dasharray:none;stroke-opacity:1"
           id="path1825" />
      </g>
      <g
         id="g1827"
         transform="translate(93.599998,191.03999)">
        <path
           d="m 0,0 4.32,-0.16 4.16,-0.64 4.16,-0.96 4.159999,-1.28 3.84,-1.76 3.840001,-1.92 3.52,-2.4 3.360001,-2.72 3.040001,-2.88 2.879997,-3.2 2.560001,-3.520001 2.079998,-3.68 1.920002,-3.839998 1.439999,-4 1.280002,-4.16 0.64,-4.16 0.479999,-4.319999 v -4.16 l -0.479999,-4.320004 -0.64,-4.16 -1.280002,-4.16 -1.439999,-4 -1.920002,-3.839996 -2.079998,-3.68 -2.560001,-3.520004 -2.879997,-3.199997 -3.040001,-2.879998 L 28,-86.239998 l -3.52,-2.400001 -3.840001,-1.919999 -3.84,-1.760002 -4.159999,-1.279998 -4.16,-0.96 -4.16,-0.639999 -4.32,-0.160004 -4.32,0.160004 -4.16,0.639999 -4.16,0.96 -4.159999,1.279998 -3.84,1.760002 -3.840001,1.919999 -3.52,2.400001 -3.360001,2.720001 -3.040001,2.879998 -2.879997,3.199997 -2.560001,3.520004 -2.079998,3.68 -1.920002,3.839996 -1.439999,4 -1.280002,4.16 -0.64,4.16 -0.479999,4.320004 v 4.16 l 0.479999,4.319999 0.64,4.16 1.280002,4.16 1.439999,4 1.920002,3.839998 2.079998,3.68 2.560001,3.520001 2.879997,3.2 3.040001,2.88 3.360001,2.72 3.52,2.4 3.840001,1.92 3.84,1.76 4.159999,1.28 4.16,0.96 4.16,0.64 z"
           style="fill:none;stroke:#000000;stroke-width:0.96;stroke-linecap:round;stroke-linejoin:bevel;stroke-miterlimit:10;stroke-dasharray:none;stroke-opacity:1"
           id="path1829" />
      </g>
    </g>
    <g
       id="g1854"
       inkscape:label="6"
       transform="matrix(0.26458333,0,0,0.26458333,360.45586,-0.39487626)">
      <g
         id="g1856">
        <path
           d="M 8.48,136 V 986.23999"
           style="fill:none;stroke:#000000;stroke-width:0.96;stroke-linecap:round;stroke-linejoin:round;stroke-miterlimit:10;stroke-dasharray:none;stroke-opacity:1"
           id="path1858" />
      </g>
      <g
         id="g1860"
         transform="translate(8.48,986.23999)">
        <path
           d="M 0,0 0.16,5.6 0.8,11.04 1.6,16.639999 2.88,21.92 4.48,27.360001 6.4,32.48 l 2.4,5.119998 2.56,4.800004 2.88,4.799999 3.36,4.479999 3.520001,4.32 3.839998,4 4,3.84 4.32,3.520001 4.479999,3.36 4.800003,2.879997 4.8,2.560006 5.119999,2.399994 5.119998,1.920005 5.440003,1.599999 5.279999,1.279999 5.599998,0.800003 5.440003,0.639999 5.599998,0.159996 5.599999,-0.159996 L 96,84.160004 l 5.6,-0.800003 5.28,-1.279999 5.44,-1.599999 5.12,-1.920005 5.12,-2.399994 4.96,-2.560006 4.64,-2.879997 4.48,-3.36 4.32001,-3.520001 4,-3.84 3.83999,-4 3.52001,-4.32 3.35998,-4.479999 2.88001,-4.799999 2.55999,-4.800004 L 163.52,32.48 165.44,27.360001 167.03999,21.92 168.32001,16.639999 169.11999,11.04 169.75999,5.6 169.92,0"
           style="fill:none;stroke:#000000;stroke-width:0.96;stroke-linecap:round;stroke-linejoin:bevel;stroke-miterlimit:10;stroke-dasharray:none;stroke-opacity:1"
           id="path1862" />
      </g>
      <g
         id="g1864">
        <path
           d="M 178.39999,986.23999 V 136"
           style="fill:none;stroke:#000000;stroke-width:0.96;stroke-linecap:round;stroke-linejoin:round;stroke-miterlimit:10;stroke-dasharray:none;stroke-opacity:1"
           id="path1866" />
      </g>
      <g
         id="g1868"
         transform="translate(178.39999,136)">
        <path
           d="M 0,0 -0.16,-5.6 -0.8,-11.04 -1.6,-16.639999 -2.88,-21.92 -4.48,-27.360001 -6.4,-32.48 l -2.4,-5.119998 -2.56,-4.960003 -2.88,-4.64 -3.36,-4.479999 -3.520001,-4.32 -3.839998,-4 -4,-3.84 -4.32,-3.520001 -4.479999,-3.36 -4.640004,-2.879997 -4.959999,-2.560006 -5.119999,-2.399994 -5.119998,-1.920005 -5.440003,-1.599999 -5.279999,-1.279999 -5.599998,-0.800003 -5.440003,-0.639999 -5.599998,-0.159996 -5.599999,0.159996 -5.440002,0.639999 -5.6,0.800003 -5.28,1.279999 -5.44,1.599999 -5.12,1.920005 -5.12,2.399994 -4.8,2.560006 -4.8,2.879997 -4.48,3.36 -4.32001,3.520001 -4,3.84 -3.83999,4 -3.52001,4.32 -3.35998,4.479999 -2.88001,4.64 -2.55999,4.960003 -2.40001,5.119998 -1.92,5.119999 -1.59999,5.440001 -1.28002,5.280001 -0.79998,5.599999 -0.64,5.44 L -169.92,0"
           style="fill:none;stroke:#000000;stroke-width:0.96;stroke-linecap:round;stroke-linejoin:bevel;stroke-miterlimit:10;stroke-dasharray:none;stroke-opacity:1"
           id="path1870" />
      </g>
      <g
         id="g1872">
        <path
           d="M 8.48,136 H 8.64"
           style="fill:none;stroke:#000000;stroke-width:0.96;stroke-linecap:round;stroke-linejoin:round;stroke-miterlimit:10;stroke-dasharray:none;stroke-opacity:1"
           id="path1874" />
      </g>
      <g
         id="g1876"
         transform="translate(93.440002,1018.08)">
        <path
           d="m 0,0 3.52,-0.16 3.36,-0.64 3.36,-0.8 3.2,-1.28 3.04,-1.6 2.720001,-2.08 2.719999,-2.24 2.4,-2.4 2.08,-2.72 1.76,-3.039999 L 29.6,-20 30.719999,-23.360001 31.360001,-26.719999 31.84,-30.08 v -3.519998 L 31.360001,-36.959999 30.719999,-40.32 29.6,-43.68 28.16,-46.720001 26.4,-49.759998 24.32,-52.48 21.92,-54.880001 19.200001,-57.119999 16.48,-59.200001 13.44,-60.799999 10.24,-62.080002 6.88,-62.880001 3.52,-63.52 0,-63.68 l -3.52,0.16 -3.36,0.639999 -3.36,0.799999 -3.2,1.280003 -3.04,1.599998 -2.720001,2.080002 -2.719999,2.239998 -2.4,2.400001 -2.08,2.720002 -1.76,3.039997 -1.44,3.040001 -1.119999,3.36 -0.640002,3.360001 -0.479999,3.360001 V -30.08 l 0.479999,3.360001 0.640002,3.359998 L -29.6,-20 l 1.44,3.040001 1.76,3.039999 2.08,2.72 2.4,2.4 2.719999,2.24 2.720001,2.08 3.04,1.6 3.2,1.28 3.36,0.8 3.36,0.64 z"
           style="fill:none;stroke:#000000;stroke-width:0.96;stroke-linecap:round;stroke-linejoin:bevel;stroke-miterlimit:10;stroke-dasharray:none;stroke-opacity:1"
           id="path1878" />
      </g>
      <g
         id="g1880"
         transform="translate(92.32,592)">
        <path
           d="m 0,0 3.52,-0.16 3.36,-0.64 3.36,-0.8 3.2,-1.28 3.04,-1.6 2.720001,-2.08 2.719999,-2.24 2.4,-2.4 2.08,-2.72 1.76,-3.039999 L 29.6,-20 30.719999,-23.360001 31.360001,-26.719999 31.84,-30.08 v -3.519998 L 31.360001,-36.959999 30.719999,-40.32 29.6,-43.68 28.16,-46.720001 26.4,-49.759998 24.32,-52.48 21.92,-54.880001 19.200001,-57.119999 16.48,-59.200001 13.44,-60.799999 10.24,-62.080002 6.88,-62.880001 3.52,-63.52 0,-63.68 l -3.52,0.16 -3.36,0.639999 -3.36,0.799999 -3.2,1.280003 -3.04,1.599998 -2.720001,2.080002 -2.719999,2.239998 -2.4,2.400001 -2.08,2.720002 -1.76,3.039997 -1.44,3.040001 -1.119999,3.36 -0.640002,3.360001 -0.479999,3.360001 V -30.08 l 0.479999,3.360001 0.640002,3.359998 L -29.6,-20 l 1.44,3.040001 1.76,3.039999 2.08,2.72 2.4,2.4 2.719999,2.24 2.720001,2.08 3.04,1.6 3.2,1.28 3.36,0.8 3.36,0.64 z"
           style="fill:none;stroke:#000000;stroke-width:0.96;stroke-linecap:round;stroke-linejoin:bevel;stroke-miterlimit:10;stroke-dasharray:none;stroke-opacity:1"
           id="path1882" />
      </g>
      <g
         id="g1884"
         transform="translate(93.440002,190.72)">
        <path
           d="m 0,0 4.32,-0.16 4.16,-0.64 4.16,-0.96 4.159999,-1.28 3.84,-1.76 3.840001,-1.92 3.52,-2.4 3.360001,-2.72 3.040001,-2.88 2.879997,-3.2 2.560001,-3.520001 2.079998,-3.68 1.920002,-3.839998 1.439999,-4 1.280002,-4.16 0.64,-4.16 0.479999,-4.319999 v -4.16 l -0.479999,-4.320004 -0.64,-4.16 -1.280002,-4.16 -1.439999,-4 -1.920002,-3.839996 -2.079998,-3.68 -2.560001,-3.520004 -2.879997,-3.199997 -3.040001,-2.879998 L 28,-86.239998 l -3.52,-2.400001 -3.840001,-1.919999 -3.84,-1.760002 -4.159999,-1.279998 -4.16,-0.96 -4.16,-0.639999 -4.32,-0.160004 -4.32,0.160004 -4.16,0.639999 -4.16,0.96 -4.159999,1.279998 -3.84,1.760002 -3.840001,1.919999 -3.52,2.400001 -3.360001,2.720001 -3.040001,2.879998 -2.879997,3.199997 -2.560001,3.520004 -2.079998,3.68 -1.920002,3.839996 -1.439999,4 -1.280002,4.16 -0.64,4.16 -0.479999,4.320004 v 4.16 l 0.479999,4.319999 0.64,4.16 1.280002,4.16 1.439999,4 1.920002,3.839998 2.079998,3.68 2.560001,3.520001 2.879997,3.2 3.040001,2.88 3.360001,2.72 3.52,2.4 3.840001,1.92 3.84,1.76 4.159999,1.28 4.16,0.96 4.16,0.64 z"
           style="fill:none;stroke:#000000;stroke-width:0.96;stroke-linecap:round;stroke-linejoin:bevel;stroke-miterlimit:10;stroke-dasharray:none;stroke-opacity:1"
           id="path1886" />
      </g>
    </g>
    <g
       id="g1911"
       inkscape:label="7"
       transform="matrix(0.26458333,0,0,0.26458333,213.91384,2.032413)">
      <g
         id="g1913">
        <path
           d="M 8.48,136 V 986.23999"
           style="fill:none;stroke:#000000;stroke-width:0.96;stroke-linecap:round;stroke-linejoin:round;stroke-miterlimit:10;stroke-dasharray:none;stroke-opacity:1"
           id="path1915" />
      </g>
      <g
         id="g1917"
         transform="translate(8.48,986.23999)">
        <path
           d="M 0,0 0.16,5.6 0.8,11.04 1.6,16.639999 2.88,21.92 4.48,27.360001 6.4,32.48 l 2.4,5.119998 2.56,4.800004 2.88,4.799999 3.36,4.479999 3.520001,4.32 3.839998,4 4,3.84 4.32,3.520001 4.479999,3.36 4.800003,2.879997 4.8,2.560006 5.119999,2.399994 5.119998,1.920005 5.440003,1.599999 5.279999,1.279999 5.599998,0.800003 5.440003,0.639999 5.599998,0.159996 5.599999,-0.159996 L 96,84.160004 l 5.6,-0.800003 5.28,-1.279999 5.44,-1.599999 5.12,-1.920005 5.12,-2.399994 4.96,-2.560006 4.64,-2.879997 4.48,-3.36 4.32001,-3.520001 4,-3.84 3.83999,-4 3.52001,-4.32 3.35998,-4.479999 2.88001,-4.799999 2.55999,-4.800004 L 163.52,32.48 165.44,27.360001 167.03999,21.92 168.32001,16.639999 169.11999,11.04 169.75999,5.6 169.92,0"
           style="fill:none;stroke:#000000;stroke-width:0.96;stroke-linecap:round;stroke-linejoin:bevel;stroke-miterlimit:10;stroke-dasharray:none;stroke-opacity:1"
           id="path1919" />
      </g>
      <g
         id="g1921">
        <path
           d="M 178.39999,986.23999 V 136"
           style="fill:none;stroke:#000000;stroke-width:0.96;stroke-linecap:round;stroke-linejoin:round;stroke-miterlimit:10;stroke-dasharray:none;stroke-opacity:1"
           id="path1923" />
      </g>
      <g
         id="g1925"
         transform="translate(178.39999,136)">
        <path
           d="M 0,0 -0.16,-5.6 -0.8,-11.04 -1.6,-16.639999 -2.88,-21.92 -4.48,-27.360001 -6.4,-32.48 l -2.4,-5.119998 -2.56,-4.960003 -2.88,-4.64 -3.36,-4.479999 -3.520001,-4.32 -3.839998,-4 -4,-3.84 -4.32,-3.520001 -4.479999,-3.36 -4.640004,-2.879997 -4.959999,-2.560006 -5.119999,-2.399994 -5.119998,-1.920005 -5.440003,-1.599999 -5.279999,-1.279999 -5.599998,-0.800003 -5.440003,-0.639999 -5.599998,-0.159996 -5.599999,0.159996 -5.440002,0.639999 -5.6,0.800003 -5.28,1.279999 -5.44,1.599999 -5.12,1.920005 -5.12,2.399994 -4.8,2.560006 -4.8,2.879997 -4.48,3.36 -4.32001,3.520001 -4,3.84 -3.83999,4 -3.52001,4.32 -3.35998,4.479999 -2.88001,4.64 -2.55999,4.960003 -2.40001,5.119998 -1.92,5.119999 -1.59999,5.440001 -1.28002,5.280001 -0.79998,5.599999 -0.64,5.44 L -169.92,0"
           style="fill:none;stroke:#000000;stroke-width:0.96;stroke-linecap:round;stroke-linejoin:bevel;stroke-miterlimit:10;stroke-dasharray:none;stroke-opacity:1"
           id="path1927" />
      </g>
      <g
         id="g1929">
        <path
           d="M 8.48,136 H 8.64"
           style="fill:none;stroke:#000000;stroke-width:0.96;stroke-linecap:round;stroke-linejoin:round;stroke-miterlimit:10;stroke-dasharray:none;stroke-opacity:1"
           id="path1931" />
      </g>
      <g
         id="g1933"
         transform="translate(93.440002,1018.08)">
        <path
           d="m 0,0 3.52,-0.16 3.36,-0.64 3.36,-0.8 3.2,-1.28 3.04,-1.6 2.720001,-2.08 2.719999,-2.24 2.4,-2.4 2.08,-2.72 1.76,-3.039999 L 29.6,-20 30.719999,-23.360001 31.360001,-26.719999 31.84,-30.08 v -3.519998 L 31.360001,-36.959999 30.719999,-40.32 29.6,-43.68 28.16,-46.720001 26.4,-49.759998 24.32,-52.48 21.92,-54.880001 19.200001,-57.119999 16.48,-59.200001 13.44,-60.799999 10.24,-62.080002 6.88,-62.880001 3.52,-63.52 0,-63.68 l -3.52,0.16 -3.36,0.639999 -3.36,0.799999 -3.2,1.280003 -3.04,1.599998 -2.720001,2.080002 -2.719999,2.239998 -2.4,2.400001 -2.08,2.720002 -1.76,3.039997 -1.44,3.040001 -1.119999,3.36 -0.640002,3.360001 -0.479999,3.360001 V -30.08 l 0.479999,3.360001 0.640002,3.359998 L -29.6,-20 l 1.44,3.040001 1.76,3.039999 2.08,2.72 2.4,2.4 2.719999,2.24 2.720001,2.08 3.04,1.6 3.2,1.28 3.36,0.8 3.36,0.64 z"
           style="fill:none;stroke:#000000;stroke-width:0.96;stroke-linecap:round;stroke-linejoin:bevel;stroke-miterlimit:10;stroke-dasharray:none;stroke-opacity:1"
           id="path1935" />
      </g>
      <g
         id="g1937"
         transform="translate(92.32,592)">
        <path
           d="m 0,0 3.52,-0.16 3.36,-0.64 3.36,-0.8 3.2,-1.28 3.04,-1.6 2.720001,-2.08 2.719999,-2.24 2.4,-2.4 2.08,-2.72 1.76,-3.039999 L 29.6,-20 30.719999,-23.360001 31.360001,-26.719999 31.84,-30.08 v -3.519998 L 31.360001,-36.959999 30.719999,-40.32 29.6,-43.68 28.16,-46.720001 26.4,-49.759998 24.32,-52.48 21.92,-54.880001 19.200001,-57.119999 16.48,-59.200001 13.44,-60.799999 10.24,-62.080002 6.88,-62.880001 3.52,-63.52 0,-63.68 l -3.52,0.16 -3.36,0.639999 -3.36,0.799999 -3.2,1.280003 -3.04,1.599998 -2.720001,2.080002 -2.719999,2.239998 -2.4,2.400001 -2.08,2.720002 -1.76,3.039997 -1.44,3.040001 -1.119999,3.36 -0.640002,3.360001 -0.479999,3.360001 V -30.08 l 0.479999,3.360001 0.640002,3.359998 L -29.6,-20 l 1.44,3.040001 1.76,3.039999 2.08,2.72 2.4,2.4 2.719999,2.24 2.720001,2.08 3.04,1.6 3.2,1.28 3.36,0.8 3.36,0.64 z"
           style="fill:none;stroke:#000000;stroke-width:0.96;stroke-linecap:round;stroke-linejoin:bevel;stroke-miterlimit:10;stroke-dasharray:none;stroke-opacity:1"
           id="path1939" />
      </g>
      <g
         id="g1941"
         transform="translate(93.440002,190.72)">
        <path
           d="m 0,0 4.32,-0.16 4.16,-0.64 4.16,-0.96 4.159999,-1.28 3.84,-1.76 3.840001,-1.92 3.52,-2.4 3.360001,-2.72 3.040001,-2.88 2.879997,-3.2 2.560001,-3.520001 2.079998,-3.68 1.920002,-3.839998 1.439999,-4 1.280002,-4.16 0.64,-4.16 0.479999,-4.319999 v -4.16 l -0.479999,-4.320004 -0.64,-4.16 -1.280002,-4.16 -1.439999,-4 -1.920002,-3.839996 -2.079998,-3.68 -2.560001,-3.520004 -2.879997,-3.199997 -3.040001,-2.879998 L 28,-86.239998 l -3.52,-2.400001 -3.840001,-1.919999 -3.84,-1.760002 -4.159999,-1.279998 -4.16,-0.96 -4.16,-0.639999 -4.32,-0.160004 -4.32,0.160004 -4.16,0.639999 -4.16,0.96 -4.159999,1.279998 -3.84,1.760002 -3.840001,1.919999 -3.52,2.400001 -3.360001,2.720001 -3.040001,2.879998 -2.879997,3.199997 -2.560001,3.520004 -2.079998,3.68 -1.920002,3.839996 -1.439999,4 -1.280002,4.16 -0.64,4.16 -0.479999,4.320004 v 4.16 l 0.479999,4.319999 0.64,4.16 1.280002,4.16 1.439999,4 1.920002,3.839998 2.079998,3.68 2.560001,3.520001 2.879997,3.2 3.040001,2.88 3.360001,2.72 3.52,2.4 3.840001,1.92 3.84,1.76 4.159999,1.28 4.16,0.96 4.16,0.64 z"
           style="fill:none;stroke:#000000;stroke-width:0.96;stroke-linecap:round;stroke-linejoin:bevel;stroke-miterlimit:10;stroke-dasharray:none;stroke-opacity:1"
           id="path1943" />
      </g>
    </g>
    <g
       id="g1968"
       inkscape:label="8"
       transform="matrix(0.26458333,0,0,0.26458333,263.1052,2.032413)">
      <g
         id="g1970">
        <path
           d="M 8.48,136 V 986.23999"
           style="fill:none;stroke:#000000;stroke-width:0.96;stroke-linecap:round;stroke-linejoin:round;stroke-miterlimit:10;stroke-dasharray:none;stroke-opacity:1"
           id="path1972" />
      </g>
      <g
         id="g1974"
         transform="translate(8.48,986.23999)">
        <path
           d="M 0,0 0.16,5.6 0.8,11.04 1.6,16.639999 2.88,21.92 4.48,27.360001 6.4,32.48 l 2.4,5.119998 2.56,4.800004 2.88,4.799999 3.36,4.479999 3.520001,4.32 3.839998,4 4,3.84 4.32,3.520001 4.479999,3.36 4.800003,2.879997 4.8,2.560006 5.119999,2.399994 5.119998,1.920005 5.440003,1.599999 5.279999,1.279999 5.599998,0.800003 5.440003,0.639999 5.599998,0.159996 5.599999,-0.159996 L 96,84.160004 l 5.6,-0.800003 5.28,-1.279999 5.44,-1.599999 5.12,-1.920005 5.12,-2.399994 4.96,-2.560006 4.64,-2.879997 4.48,-3.36 4.32001,-3.520001 4,-3.84 3.83999,-4 3.52001,-4.32 3.35998,-4.479999 2.88001,-4.799999 2.55999,-4.800004 L 163.52,32.48 165.44,27.360001 167.03999,21.92 168.32001,16.639999 169.11999,11.04 169.75999,5.6 169.92,0"
           style="fill:none;stroke:#000000;stroke-width:0.96;stroke-linecap:round;stroke-linejoin:bevel;stroke-miterlimit:10;stroke-dasharray:none;stroke-opacity:1"
           id="path1976" />
      </g>
      <g
         id="g1978">
        <path
           d="M 178.39999,986.23999 V 136"
           style="fill:none;stroke:#000000;stroke-width:0.96;stroke-linecap:round;stroke-linejoin:round;stroke-miterlimit:10;stroke-dasharray:none;stroke-opacity:1"
           id="path1980" />
      </g>
      <g
         id="g1982"
         transform="translate(178.39999,136)">
        <path
           d="M 0,0 -0.16,-5.6 -0.8,-11.04 -1.6,-16.639999 -2.88,-21.92 -4.48,-27.360001 -6.4,-32.48 l -2.4,-5.119998 -2.56,-4.960003 -2.88,-4.64 -3.36,-4.479999 -3.520001,-4.32 -3.839998,-4 -4,-3.84 -4.32,-3.520001 -4.479999,-3.36 -4.640004,-2.879997 -4.959999,-2.560006 -5.119999,-2.399994 -5.119998,-1.920005 -5.440003,-1.599999 -5.279999,-1.279999 -5.599998,-0.800003 -5.440003,-0.639999 -5.599998,-0.159996 -5.599999,0.159996 -5.440002,0.639999 -5.6,0.800003 -5.28,1.279999 -5.44,1.599999 -5.12,1.920005 -5.12,2.399994 -4.8,2.560006 -4.8,2.879997 -4.48,3.36 -4.32001,3.520001 -4,3.84 -3.83999,4 -3.52001,4.32 -3.35998,4.479999 -2.88001,4.64 -2.55999,4.960003 -2.40001,5.119998 -1.92,5.119999 -1.59999,5.440001 -1.28002,5.280001 -0.79998,5.599999 -0.64,5.44 L -169.92,0"
           style="fill:none;stroke:#000000;stroke-width:0.96;stroke-linecap:round;stroke-linejoin:bevel;stroke-miterlimit:10;stroke-dasharray:none;stroke-opacity:1"
           id="path1984" />
      </g>
      <g
         id="g1986">
        <path
           d="M 8.48,136 H 8.64"
           style="fill:none;stroke:#000000;stroke-width:0.96;stroke-linecap:round;stroke-linejoin:round;stroke-miterlimit:10;stroke-dasharray:none;stroke-opacity:1"
           id="path1988" />
      </g>
      <g
         id="g1990"
         transform="translate(93.440002,1018.08)">
        <path
           d="m 0,0 3.52,-0.16 3.36,-0.64 3.36,-0.8 3.2,-1.28 3.04,-1.6 2.720001,-2.08 2.719999,-2.24 2.4,-2.4 2.08,-2.72 1.76,-3.039999 L 29.6,-20 30.719999,-23.360001 31.360001,-26.719999 31.84,-30.08 v -3.519998 L 31.360001,-36.959999 30.719999,-40.32 29.6,-43.68 28.16,-46.720001 26.4,-49.759998 24.32,-52.48 21.92,-54.880001 19.200001,-57.119999 16.48,-59.200001 13.44,-60.799999 10.24,-62.080002 6.88,-62.880001 3.52,-63.52 0,-63.68 l -3.52,0.16 -3.36,0.639999 -3.36,0.799999 -3.2,1.280003 -3.04,1.599998 -2.720001,2.080002 -2.719999,2.239998 -2.4,2.400001 -2.08,2.720002 -1.76,3.039997 -1.44,3.040001 -1.119999,3.36 -0.640002,3.360001 -0.479999,3.360001 V -30.08 l 0.479999,3.360001 0.640002,3.359998 L -29.6,-20 l 1.44,3.040001 1.76,3.039999 2.08,2.72 2.4,2.4 2.719999,2.24 2.720001,2.08 3.04,1.6 3.2,1.28 3.36,0.8 3.36,0.64 z"
           style="fill:none;stroke:#000000;stroke-width:0.96;stroke-linecap:round;stroke-linejoin:bevel;stroke-miterlimit:10;stroke-dasharray:none;stroke-opacity:1"
           id="path1992" />
      </g>
      <g
         id="g1994"
         transform="translate(92.32,592)">
        <path
           d="m 0,0 3.52,-0.16 3.36,-0.64 3.36,-0.8 3.2,-1.28 3.04,-1.6 2.720001,-2.08 2.719999,-2.24 2.4,-2.4 2.08,-2.72 1.76,-3.039999 L 29.6,-20 30.719999,-23.360001 31.360001,-26.719999 31.84,-30.08 v -3.519998 L 31.360001,-36.959999 30.719999,-40.32 29.6,-43.68 28.16,-46.720001 26.4,-49.759998 24.32,-52.48 21.92,-54.880001 19.200001,-57.119999 16.48,-59.200001 13.44,-60.799999 10.24,-62.080002 6.88,-62.880001 3.52,-63.52 0,-63.68 l -3.52,0.16 -3.36,0.639999 -3.36,0.799999 -3.2,1.280003 -3.04,1.599998 -2.720001,2.080002 -2.719999,2.239998 -2.4,2.400001 -2.08,2.720002 -1.76,3.039997 -1.44,3.040001 -1.119999,3.36 -0.640002,3.360001 -0.479999,3.360001 V -30.08 l 0.479999,3.360001 0.640002,3.359998 L -29.6,-20 l 1.44,3.040001 1.76,3.039999 2.08,2.72 2.4,2.4 2.719999,2.24 2.720001,2.08 3.04,1.6 3.2,1.28 3.36,0.8 3.36,0.64 z"
           style="fill:none;stroke:#000000;stroke-width:0.96;stroke-linecap:round;stroke-linejoin:bevel;stroke-miterlimit:10;stroke-dasharray:none;stroke-opacity:1"
           id="path1996" />
      </g>
      <g
         id="g1998"
         transform="translate(93.440002,190.88)">
        <path
           d="m 0,0 4.32,-0.16 4.16,-0.64 4.16,-0.96 4.159999,-1.28 3.84,-1.76 3.840001,-1.92 3.52,-2.4 3.360001,-2.72 3.040001,-2.88 2.879997,-3.2 2.560001,-3.520001 2.079998,-3.68 1.920002,-3.839998 1.439999,-4 1.280002,-4.16 0.64,-4.16 0.479999,-4.319999 v -4.16 l -0.479999,-4.320004 -0.64,-4.16 -1.280002,-4.16 -1.439999,-4 -1.920002,-3.839996 -2.079998,-3.68 -2.560001,-3.520004 -2.879997,-3.199997 -3.040001,-2.879998 L 28,-86.239998 l -3.52,-2.400001 -3.840001,-1.919999 -3.84,-1.760002 -4.159999,-1.279998 -4.16,-0.96 -4.16,-0.639999 -4.32,-0.160004 -4.32,0.160004 -4.16,0.639999 -4.16,0.96 -4.159999,1.279998 -3.84,1.760002 -3.840001,1.919999 -3.52,2.400001 -3.360001,2.720001 -3.040001,2.879998 -2.879997,3.199997 -2.560001,3.520004 -2.079998,3.68 -1.920002,3.839996 -1.439999,4 -1.280002,4.16 -0.64,4.16 -0.479999,4.320004 v 4.16 l 0.479999,4.319999 0.64,4.16 1.280002,4.16 1.439999,4 1.920002,3.839998 2.079998,3.68 2.560001,3.520001 2.879997,3.2 3.040001,2.88 3.360001,2.72 3.52,2.4 3.840001,1.92 3.84,1.76 4.159999,1.28 4.16,0.96 4.16,0.64 z"
           style="fill:none;stroke:#000000;stroke-width:0.96;stroke-linecap:round;stroke-linejoin:bevel;stroke-miterlimit:10;stroke-dasharray:none;stroke-opacity:1"
           id="path2000" />
      </g>
    </g>
    <g
       id="g2025"
       inkscape:label="9"
       transform="matrix(0.26458333,0,0,0.26458333,211.45841,288.07877)">
      <g
         id="g2027">
        <path
           d="M 74.080002,114.56 H 355.35999"
           style="fill:none;stroke:#000000;stroke-width:0.96;stroke-linecap:round;stroke-linejoin:round;stroke-miterlimit:10;stroke-dasharray:none;stroke-opacity:1"
           id="path2029" />
      </g>
      <g
         id="g2031"
         transform="translate(355.35999,114.4)">
        <path
           d="m 0,0 4.48,-0.16 4.48,-0.64 4.32,-0.8 4.32,-1.28 4.32,-1.76 4,-1.92 3.84,-2.24 3.679999,-2.72 3.36,-2.88 L 40,-17.6 l 2.880001,-3.359999 2.719997,-3.68 L 47.84,-28.48 l 1.919998,-4 1.760002,-4.319999 1.279999,-4.32 0.799999,-4.32 0.640004,-4.479999 0.16,-4.480004 -0.16,-4.479999 -0.640004,-4.48 L 52.799999,-67.68 51.52,-72 49.759998,-76.32 47.84,-80.32 45.599998,-84.160004 42.880001,-87.839996 40,-91.199997 l -3.200001,-3.200005 -3.36,-2.879997 L 29.76,-100 l -3.84,-2.24 -4,-1.92 -4.32,-1.76 -4.32,-1.28 L 8.96,-108 4.48,-108.64 0,-108.8"
           style="fill:none;stroke:#000000;stroke-width:0.96;stroke-linecap:round;stroke-linejoin:bevel;stroke-miterlimit:10;stroke-dasharray:none;stroke-opacity:1"
           id="path2033" />
      </g>
      <g
         id="g2035">
        <path
           d="M 355.35999,5.6 H 74.080002"
           style="fill:none;stroke:#000000;stroke-width:0.96;stroke-linecap:round;stroke-linejoin:round;stroke-miterlimit:10;stroke-dasharray:none;stroke-opacity:1"
           id="path2037" />
      </g>
      <g
         id="g2039"
         transform="translate(74.080002,5.6)">
        <path
           d="m 0,0 -4.48,0.16 -4.48,0.64 -4.32,0.8 -4.32,1.28 -4.32,1.76 -4,1.92 -3.84,2.24 -3.679999,2.72 -3.36,2.88 L -40,17.6 l -2.880001,3.359999 -2.719997,3.68 L -47.84,28.48 l -1.919998,4 -1.760002,4.319999 -1.279999,4.32 -0.799999,4.32 -0.640004,4.479999 -0.16,4.480004 0.16,4.479999 0.640004,4.48 L -52.799999,67.68 -51.52,72 l 1.760002,4.32 1.919998,4 2.240002,3.840004 2.719997,3.679992 2.880001,3.360001 3.200001,3.200005 3.36,2.879997 L -29.76,100 l 3.84,2.24 4,1.92 4.32,1.76 4.32,1.28 4.32,0.8 4.48,0.64 4.48,0.16"
           style="fill:none;stroke:#000000;stroke-width:0.96;stroke-linecap:round;stroke-linejoin:bevel;stroke-miterlimit:10;stroke-dasharray:none;stroke-opacity:1"
           id="path2041" />
      </g>
      <g
         id="g2043">
        <path
           d="m 74.080002,114.56 h 0.159996"
           style="fill:none;stroke:#000000;stroke-width:0.96;stroke-linecap:round;stroke-linejoin:round;stroke-miterlimit:10;stroke-dasharray:none;stroke-opacity:1"
           id="path2045" />
      </g>
      <g
         id="g2047"
         transform="translate(73.120003,87.040001)">
        <path
           d="m 0,0 3.2,-0.16 3.04,-0.64 3.04,-0.8 2.88,-1.28 2.72,-1.6 2.560001,-1.92 2.399999,-2.08 1.92,-2.4 1.76,-2.72 1.439999,-2.88 L 26.08,-19.360001 26.719999,-22.4 l 0.480002,-3.2 v -3.199999 L 26.719999,-32 26.08,-35.040001 24.959999,-37.919998 23.52,-40.799999 21.76,-43.52 19.84,-45.919998 17.440001,-48 14.88,-49.919998 12.16,-51.52 9.28,-52.799999 6.24,-53.599998 3.2,-54.240002 l -3.2,-0.16 -3.2,0.16 -3.04,0.640004 -3.04,0.799999 -2.88,1.279999 -2.72,1.600002 L -17.440001,-48 -19.84,-45.919998 -21.76,-43.52 l -1.76,2.720001 -1.439999,2.880001 L -26.08,-35.040001 -26.719999,-32 l -0.480002,3.200001 V -25.6 l 0.480002,3.2 0.639999,3.039999 1.120001,2.880001 1.439999,2.88 1.76,2.72 1.92,2.4 2.399999,2.08 2.560001,1.92 2.72,1.6 2.88,1.28 3.04,0.8 3.04,0.64 z"
           style="fill:none;stroke:#000000;stroke-width:0.96;stroke-linecap:round;stroke-linejoin:bevel;stroke-miterlimit:10;stroke-dasharray:none;stroke-opacity:1"
           id="path2049" />
      </g>
      <g
         id="g2051"
         transform="translate(355.35999,100.8)">
        <path
           d="M 0,0 3.84,-0.16 7.68,-0.8 11.52,-1.6 15.2,-2.88 18.719999,-4.48 22.08,-6.4 25.280001,-8.8 28.16,-11.2 l 2.719999,-2.88 2.4,-3.040001 2.080002,-3.359999 1.759998,-3.36 1.440002,-3.68 1.119999,-3.680001 0.64,-3.84 0.479999,-3.84 v -3.84 l -0.479999,-3.84 -0.64,-3.840001 -1.119999,-3.68 -1.440002,-3.679996 -1.759998,-3.520001 -2.080002,-3.200004 -2.4,-3.039994 L 28.16,-70.400002 25.280001,-72.800003 22.08,-75.199997 18.719999,-77.120003 15.2,-78.720001 11.52,-80 7.68,-80.800003 3.84,-81.440002 0,-81.599998 l -3.84,0.159996 -3.84,0.639999 -3.84,0.800003 -3.68,1.279999 -3.519999,1.599998 -3.360001,1.920006 -3.200001,2.399994 -2.879999,2.400001 -2.719999,2.880005 -2.4,3.039994 -2.080002,3.200004 -1.759998,3.520001 -1.440002,3.679996 -1.119999,3.68 -0.64,3.840001 -0.479999,3.84 v 3.84 l 0.479999,3.84 0.64,3.84 1.119999,3.680001 1.440002,3.68 1.759998,3.36 2.080002,3.359999 2.4,3.040001 2.719999,2.88 2.879999,2.4 3.200001,2.4 3.360001,1.92 3.519999,1.6 3.68,1.28 3.84,0.8 3.84,0.64 z"
           style="fill:none;stroke:#000000;stroke-width:0.96;stroke-linecap:round;stroke-linejoin:bevel;stroke-miterlimit:10;stroke-dasharray:none;stroke-opacity:1"
           id="path2053" />
      </g>
    </g>
    <g
       id="g2076"
       inkscape:label="10"
       transform="matrix(0.26458333,0,0,0.26458333,321.65994,287.34658)">
      <g
         id="g2078">
        <path
           d="M 74.080002,114.56 H 355.35999"
           style="fill:none;stroke:#000000;stroke-width:0.96;stroke-linecap:round;stroke-linejoin:round;stroke-miterlimit:10;stroke-dasharray:none;stroke-opacity:1"
           id="path2080" />
      </g>
      <g
         id="g2082"
         transform="translate(355.35999,114.56)">
        <path
           d="m 0,0 4.48,-0.16 4.48,-0.64 4.32,-0.8 4.32,-1.28 4.32,-1.76 4,-1.92 3.84,-2.24 3.679999,-2.72 3.36,-2.88 L 40,-17.6 l 2.880001,-3.359999 2.719997,-3.68 L 47.84,-28.48 l 1.919998,-4 1.760002,-4.319999 1.279999,-4.32 0.799999,-4.32 0.640004,-4.479999 0.16,-4.480004 -0.16,-4.479999 -0.640004,-4.48 L 52.799999,-67.68 51.52,-72 49.759998,-76.32 47.84,-80.32 45.599998,-84.160004 42.880001,-87.839996 40,-91.199997 l -3.200001,-3.200005 -3.36,-2.879997 L 29.76,-100 l -3.84,-2.24 -4,-1.92 -4.32,-1.76 -4.32,-1.28 L 8.96,-108 4.48,-108.64 0,-108.8"
           style="fill:none;stroke:#000000;stroke-width:0.96;stroke-linecap:round;stroke-linejoin:bevel;stroke-miterlimit:10;stroke-dasharray:none;stroke-opacity:1"
           id="path2084" />
      </g>
      <g
         id="g2086">
        <path
           d="M 355.35999,5.6 H 74.080002"
           style="fill:none;stroke:#000000;stroke-width:0.96;stroke-linecap:round;stroke-linejoin:round;stroke-miterlimit:10;stroke-dasharray:none;stroke-opacity:1"
           id="path2088" />
      </g>
      <g
         id="g2090"
         transform="translate(74.080002,5.76)">
        <path
           d="m 0,0 -4.48,0.16 -4.48,0.64 -4.32,0.8 -4.32,1.28 -4.32,1.76 -4,1.92 -3.84,2.24 -3.679999,2.72 -3.36,2.88 L -40,17.6 l -2.880001,3.359999 -2.719997,3.68 L -47.84,28.48 l -1.919998,4 -1.760002,4.319999 -1.279999,4.32 -0.799999,4.32 -0.640004,4.479999 -0.16,4.480004 0.16,4.479999 0.640004,4.48 L -52.799999,67.68 -51.52,72 l 1.760002,4.32 1.919998,4 2.240002,3.840004 2.719997,3.679992 2.880001,3.360001 3.200001,3.200005 3.36,2.879997 L -29.76,100 l 3.84,2.24 4,1.92 4.32,1.76 4.32,1.28 4.32,0.8 4.48,0.64 4.48,0.16"
           style="fill:none;stroke:#000000;stroke-width:0.96;stroke-linecap:round;stroke-linejoin:bevel;stroke-miterlimit:10;stroke-dasharray:none;stroke-opacity:1"
           id="path2092" />
      </g>
      <g
         id="g2094">
        <path
           d="m 74.080002,114.56 h 0.159996"
           style="fill:none;stroke:#000000;stroke-width:0.96;stroke-linecap:round;stroke-linejoin:round;stroke-miterlimit:10;stroke-dasharray:none;stroke-opacity:1"
           id="path2096" />
      </g>
      <g
         id="g2098"
         transform="translate(73.120003,87.040001)">
        <path
           d="m 0,0 3.2,-0.16 3.04,-0.64 3.04,-0.8 2.88,-1.28 2.72,-1.6 2.560001,-1.92 2.399999,-2.08 1.92,-2.4 1.76,-2.72 1.439999,-2.88 L 26.08,-19.360001 26.719999,-22.4 l 0.480002,-3.2 v -3.199999 L 26.719999,-32 26.08,-35.040001 24.959999,-37.919998 23.52,-40.799999 21.76,-43.52 19.84,-45.919998 17.440001,-48 14.88,-49.919998 12.16,-51.52 9.28,-52.799999 6.24,-53.599998 3.2,-54.240002 l -3.2,-0.16 -3.2,0.16 -3.04,0.640004 -3.04,0.799999 -2.88,1.279999 -2.72,1.600002 L -17.440001,-48 -19.84,-45.919998 -21.76,-43.52 l -1.76,2.720001 -1.439999,2.880001 L -26.08,-35.040001 -26.719999,-32 l -0.480002,3.200001 V -25.6 l 0.480002,3.2 0.639999,3.039999 1.120001,2.880001 1.439999,2.88 1.76,2.72 1.92,2.4 2.399999,2.08 2.560001,1.92 2.72,1.6 2.88,1.28 3.04,0.8 3.04,0.64 z"
           style="fill:none;stroke:#000000;stroke-width:0.96;stroke-linecap:round;stroke-linejoin:bevel;stroke-miterlimit:10;stroke-dasharray:none;stroke-opacity:1"
           id="path2100" />
      </g>
      <g
         id="g2102"
         transform="translate(355.35999,100.96)">
        <path
           d="M 0,0 3.84,-0.16 7.68,-0.8 11.52,-1.6 15.2,-2.88 18.719999,-4.48 22.08,-6.4 25.280001,-8.8 28.16,-11.2 l 2.719999,-2.88 2.4,-3.040001 2.080002,-3.359999 1.759998,-3.36 1.440002,-3.68 1.119999,-3.680001 0.64,-3.84 0.479999,-3.84 v -3.84 l -0.479999,-3.84 -0.64,-3.840001 -1.119999,-3.68 -1.440002,-3.679996 -1.759998,-3.520001 -2.080002,-3.200004 -2.4,-3.039994 L 28.16,-70.400002 25.280001,-72.800003 22.08,-75.199997 18.719999,-77.120003 15.2,-78.720001 11.52,-80 7.68,-80.800003 3.84,-81.440002 0,-81.599998 l -3.84,0.159996 -3.84,0.639999 -3.84,0.800003 -3.68,1.279999 -3.519999,1.599998 -3.360001,1.920006 -3.200001,2.399994 -2.879999,2.400001 -2.719999,2.880005 -2.4,3.039994 -2.080002,3.200004 -1.759998,3.520001 -1.440002,3.679996 -1.119999,3.68 -0.64,3.840001 -0.479999,3.84 v 3.84 l 0.479999,3.84 0.64,3.84 1.119999,3.680001 1.440002,3.68 1.759998,3.36 2.080002,3.359999 2.4,3.040001 2.719999,2.88 2.879999,2.4 3.200001,2.4 3.360001,1.92 3.519999,1.6 3.68,1.28 3.84,0.8 3.84,0.64 z"
           style="fill:none;stroke:#000000;stroke-width:0.96;stroke-linecap:round;stroke-linejoin:bevel;stroke-miterlimit:10;stroke-dasharray:none;stroke-opacity:1"
           id="path2104" />
      </g>
    </g>
    <g
       id="g2127"
       inkscape:label="11"
       transform="matrix(0.26458333,0,0,0.26458333,403.19139,4.4734575)">
      <g
         id="g2129">
        <path
           d="M 316.64001,49.759998 H 107.68"
           style="fill:none;stroke:#000000;stroke-width:0.96;stroke-linecap:round;stroke-linejoin:round;stroke-miterlimit:10;stroke-dasharray:none;stroke-opacity:1"
           id="path2131" />
      </g>
      <g
         id="g2133"
         transform="translate(107.68,49.919998)">
        <path
           d="m 0,0 -5.28,0.16 -5.12,0.64 -5.12,0.8 -4.96,1.28 -4.960001,1.76 -4.799999,1.92 -4.800001,2.4 -4.479999,2.56 -4.16,3.04 -4.16,3.2 -3.68,3.680001 -3.680001,3.68 -3.200001,4.16 -3.039997,4.159998 L -64,37.919998 -66.400002,42.720001 -68.32,47.52 l -1.760002,4.96 -1.279999,4.959999 -0.800003,5.120002 -0.639999,5.119999 -0.159996,5.279999"
           style="fill:none;stroke:#000000;stroke-width:0.96;stroke-linecap:round;stroke-linejoin:bevel;stroke-miterlimit:10;stroke-dasharray:none;stroke-opacity:1"
           id="path2135" />
      </g>
      <g
         id="g2137">
        <path
           d="m 34.720001,122.88 v 153.76001 l 351.040009,428 7.84,-576.80001"
           style="fill:none;stroke:#000000;stroke-width:0.96;stroke-linecap:round;stroke-linejoin:round;stroke-miterlimit:10;stroke-dasharray:none;stroke-opacity:1"
           id="path2139" />
      </g>
      <g
         id="g2141"
         transform="translate(393.44,127.84)">
        <path
           d="m 0,0 -0.16,-5.12 -0.32,-5.12 -0.8,-4.96 -1.12,-4.96 -1.44,-4.799999 -1.76,-4.800001 -1.92,-4.640002 -2.4,-4.479999 -2.72,-4.32 -2.88,-4.16 -3.199999,-4 -3.360001,-3.68 -3.68,-3.52 -4,-3.199997 -3.999998,-3.040005 -4.320004,-2.719994 -4.479999,-2.400001 -4.64,-2.080002 -4.639999,-1.760002 -4.959999,-1.439995 -4.959999,-1.280006 -4.960003,-0.799996 -4.959999,-0.480003 -5.120003,-0.159996"
           style="fill:none;stroke:#000000;stroke-width:0.96;stroke-linecap:round;stroke-linejoin:bevel;stroke-miterlimit:10;stroke-dasharray:none;stroke-opacity:1"
           id="path2143" />
      </g>
      <g
         id="g2145">
        <path
           d="m 316.64001,49.759998 h 0.15998"
           style="fill:none;stroke:#000000;stroke-width:0.96;stroke-linecap:round;stroke-linejoin:round;stroke-miterlimit:10;stroke-dasharray:none;stroke-opacity:1"
           id="path2147" />
      </g>
      <g
         id="g2149"
         transform="translate(119.52,176)">
        <path
           d="m 0,0 4.32,-0.16 4.16,-0.64 4.32,-0.8 3.999999,-1.44 4,-1.6 3.84,-1.92 3.680001,-2.4 3.36,-2.56 3.200001,-2.88 2.879997,-3.2 2.560002,-3.359999 2.400001,-3.68 1.919998,-3.840001 1.600003,-4 1.439998,-4 0.8,-4.319999 0.639999,-4.16 0.16,-4.32 -0.16,-4.319999 -0.639999,-4.16 -0.8,-4.320004 -1.439998,-4 -1.600003,-4 -1.919998,-3.839996 -2.400001,-3.68 -2.560002,-3.360001 -2.879997,-3.200005 L 31.68,-87.040001 28.32,-89.599998 24.639999,-92 l -3.84,-1.919998 -4,-1.599999 -3.999999,-1.440002 -4.32,-0.800003 -4.16,-0.64 -4.32,-0.159996 -4.32,0.159996 -4.16,0.64 -4.32,0.800003 -3.999999,1.440002 -4,1.599999 -3.84,1.919998 -3.680001,2.400002 -3.36,2.559997 -3.200001,2.879997 -2.879997,3.200005 -2.560002,3.360001 -2.400001,3.68 -1.919998,3.839996 -1.600003,4 -1.439998,4 -0.8,4.320004 -0.639999,4.16 -0.16,4.319999 0.16,4.32 0.639999,4.16 0.8,4.319999 1.439998,4 1.600003,4 1.919998,3.840001 2.400001,3.68 2.560002,3.359999 2.879997,3.2 3.200001,2.88 3.36,2.56 3.680001,2.4 3.84,1.92 4,1.6 3.999999,1.44 4.32,0.8 4.16,0.64 z"
           style="fill:none;stroke:#000000;stroke-width:0.96;stroke-linecap:round;stroke-linejoin:bevel;stroke-miterlimit:10;stroke-dasharray:none;stroke-opacity:1"
           id="path2151" />
      </g>
      <g
         id="g2153"
         transform="translate(316.64001,176)">
        <path
           d="m 0,0 4.32,-0.16 4.16,-0.64 4.32,-0.8 3.999999,-1.44 4,-1.6 3.84,-1.92 3.680001,-2.4 3.36,-2.56 3.200001,-2.88 2.879997,-3.2 2.560002,-3.359999 2.400001,-3.68 1.919998,-3.840001 1.600003,-4 1.439998,-4 0.8,-4.319999 0.639999,-4.16 0.16,-4.32 -0.16,-4.319999 -0.639999,-4.16 -0.8,-4.320004 -1.439998,-4 -1.600003,-4 -1.919998,-3.839996 -2.400001,-3.68 -2.560002,-3.360001 -2.879997,-3.200005 L 31.68,-87.040001 28.32,-89.599998 24.639999,-92 l -3.84,-1.919998 -4,-1.599999 -3.999999,-1.440002 -4.32,-0.800003 -4.16,-0.64 -4.32,-0.159996 -4.32,0.159996 -4.16,0.64 -4.32,0.800003 -3.999999,1.440002 -4,1.599999 -3.84,1.919998 -3.680001,2.400002 -3.36,2.559997 -3.200001,2.879997 -2.879997,3.200005 -2.560002,3.360001 -2.400001,3.68 -1.919998,3.839996 -1.600003,4 -1.439998,4 -0.8,4.320004 -0.639999,4.16 -0.16,4.319999 0.16,4.32 0.639999,4.16 0.8,4.319999 1.439998,4 1.600003,4 1.919998,3.840001 2.400001,3.68 2.560002,3.359999 2.879997,3.2 3.200001,2.88 3.36,2.56 3.680001,2.4 3.84,1.92 4,1.6 3.999999,1.44 4.32,0.8 4.16,0.64 z"
           style="fill:none;stroke:#000000;stroke-width:0.96;stroke-linecap:round;stroke-linejoin:bevel;stroke-miterlimit:10;stroke-dasharray:none;stroke-opacity:1"
           id="path2155" />
      </g>
    </g>
    <g
       id="g2178"
       inkscape:label="12"
       transform="matrix(-0.26456619,0.00301178,-0.00301178,-0.26456619,517.91861,283.973)">
      <g
         id="g2180">
        <path
           d="M 316.64001,50.240002 H 107.68"
           style="fill:none;stroke:#000000;stroke-width:0.96;stroke-linecap:round;stroke-linejoin:round;stroke-miterlimit:10;stroke-dasharray:none;stroke-opacity:1"
           id="path2182" />
      </g>
      <g
         id="g2184"
         transform="translate(107.68,50.400002)">
        <path
           d="m 0,0 -5.12,0.16 -5.28,0.64 -5.12,0.8 -4.96,1.28 -4.960001,1.76 -4.799999,1.92 -4.640001,2.4 -4.48,2.56 -4.319999,3.04 -4,3.2 -3.84,3.520001 -3.520001,3.84 -3.200001,4 -3.039997,4.319998 -2.560001,4.479999 -2.399998,4.640003 -1.920006,4.8 L -69.919998,52.32 -71.199997,57.279999 -72,62.400002 -72.639999,67.68 l -0.160004,5.120003"
           style="fill:none;stroke:#000000;stroke-width:0.96;stroke-linecap:round;stroke-linejoin:bevel;stroke-miterlimit:10;stroke-dasharray:none;stroke-opacity:1"
           id="path2186" />
      </g>
      <g
         id="g2188">
        <path
           d="M 34.720001,123.2 V 276.79999 L 385.60001,704.64001 393.44,128.16"
           style="fill:none;stroke:#000000;stroke-width:0.96;stroke-linecap:round;stroke-linejoin:round;stroke-miterlimit:10;stroke-dasharray:none;stroke-opacity:1"
           id="path2190" />
      </g>
      <g
         id="g2192"
         transform="translate(393.44,128.16)">
        <path
           d="m 0,0 -0.16,-5.12 -0.32,-5.12 -0.8,-4.96 -1.12,-4.96 -1.44,-4.799999 -1.76,-4.800001 -1.92,-4.640002 -2.4,-4.479999 -2.72,-4.32 -2.88,-4.16 -3.199999,-4 -3.360001,-3.68 -3.68,-3.52 -4,-3.199997 -3.999998,-3.040005 -4.320004,-2.719994 -4.479999,-2.400001 -4.64,-2.080002 -4.639999,-1.760002 -4.959999,-1.439995 -4.959999,-1.280006 -4.960003,-0.799996 -4.959999,-0.480003 -5.120003,-0.159996"
           style="fill:none;stroke:#000000;stroke-width:0.96;stroke-linecap:round;stroke-linejoin:bevel;stroke-miterlimit:10;stroke-dasharray:none;stroke-opacity:1"
           id="path2194" />
      </g>
      <g
         id="g2196">
        <path
           d="m 316.64001,50.240002 h 0.15998"
           style="fill:none;stroke:#000000;stroke-width:0.96;stroke-linecap:round;stroke-linejoin:round;stroke-miterlimit:10;stroke-dasharray:none;stroke-opacity:1"
           id="path2198" />
      </g>
      <g
         id="g2200"
         transform="translate(119.52,176.16)">
        <path
           d="m 0,0 4.32,-0.16 4.16,-0.64 4.16,-0.8 4.159999,-1.44 4,-1.6 3.84,-1.92 3.520001,-2.4 3.36,-2.56 3.200001,-2.88 2.879997,-3.2 2.560002,-3.359999 2.400001,-3.68 L 44.48,-28.32 l 1.600002,-4 1.439998,-4.16 0.8,-4.159999 0.639999,-4.16 0.16,-4.32 -0.16,-4.32 -0.639999,-4.159999 -0.8,-4.16 -1.439998,-4.16 -1.600002,-4 -1.919999,-3.840004 -2.400001,-3.519997 -2.560002,-3.36 -2.879997,-3.199997 L 31.52,-86.720001 28.16,-89.279999 24.639999,-91.68 l -3.84,-1.919998 -4,-1.599999 -4.159999,-1.440002 -4.16,-0.800003 -4.16,-0.64 -4.32,-0.159996 -4.32,0.159996 -4.16,0.64 -4.16,0.800003 -4.159999,1.440002 -4,1.599999 L -24.48,-91.68 l -3.68,2.400001 -3.36,2.559998 -3.200001,2.880005 -2.879997,3.199997 -2.560002,3.36 -2.400001,3.519997 -1.919999,3.840004 -1.600002,4 -1.439998,4.16 -0.8,4.16 -0.639999,4.159999 -0.16,4.32 0.16,4.32 0.639999,4.16 0.8,4.159999 1.439998,4.16 1.600002,4 1.919999,3.680001 2.400001,3.68 2.560002,3.359999 2.879997,3.2 3.200001,2.88 3.36,2.56 3.520001,2.4 3.84,1.92 4,1.6 4.159999,1.44 4.16,0.8 4.16,0.64 z"
           style="fill:none;stroke:#000000;stroke-width:0.96;stroke-linecap:round;stroke-linejoin:bevel;stroke-miterlimit:10;stroke-dasharray:none;stroke-opacity:1"
           id="path2202" />
      </g>
      <g
         id="g2204"
         transform="translate(316.64001,176.16)">
        <path
           d="m 0,0 4.32,-0.16 4.16,-0.64 4.16,-0.8 4.159999,-1.44 4,-1.6 3.84,-1.92 3.520001,-2.4 3.36,-2.56 3.200001,-2.88 2.879997,-3.2 2.560002,-3.359999 2.400001,-3.68 L 44.48,-28.32 l 1.600002,-4 1.439998,-4.16 0.8,-4.159999 0.639999,-4.16 0.16,-4.32 -0.16,-4.32 -0.639999,-4.159999 -0.8,-4.16 -1.439998,-4.16 -1.600002,-4 -1.919999,-3.840004 -2.400001,-3.519997 -2.560002,-3.36 -2.879997,-3.199997 L 31.52,-86.720001 28.16,-89.279999 24.639999,-91.68 l -3.84,-1.919998 -4,-1.599999 -4.159999,-1.440002 -4.16,-0.800003 -4.16,-0.64 -4.32,-0.159996 -4.32,0.159996 -4.16,0.64 -4.16,0.800003 -4.159999,1.440002 -4,1.599999 L -24.48,-91.68 l -3.68,2.400001 -3.36,2.559998 -3.200001,2.880005 -2.879997,3.199997 -2.560002,3.36 -2.400001,3.519997 -1.919999,3.840004 -1.600002,4 -1.439998,4.16 -0.8,4.16 -0.639999,4.159999 -0.16,4.32 0.16,4.32 0.639999,4.16 0.8,4.159999 1.439998,4.16 1.600002,4 1.919999,3.680001 2.400001,3.68 2.560002,3.359999 2.879997,3.2 3.200001,2.88 3.36,2.56 3.520001,2.4 3.84,1.92 4,1.6 4.159999,1.44 4.16,0.8 4.16,0.64 z"
           style="fill:none;stroke:#000000;stroke-width:0.96;stroke-linecap:round;stroke-linejoin:bevel;stroke-miterlimit:10;stroke-dasharray:none;stroke-opacity:1"
           id="path2206" />
      </g>
    </g>
    <g
       id="g2229"
       inkscape:label="13"
       transform="matrix(0.00123286,0.26458046,-0.26458046,0.00123286,215.42408,205.76659)">
      <g
         id="g2231">
        <path
           d="M 132.8,754.88 H 296.64001"
           style="fill:none;stroke:#000000;stroke-width:0.96;stroke-linecap:round;stroke-linejoin:round;stroke-miterlimit:10;stroke-dasharray:none;stroke-opacity:1"
           id="path2233" />
      </g>
      <g
         id="g2235"
         transform="translate(296.64001,754.71997)">
        <path
           d="m 0,0 5.12,-0.16 5.28,-0.64 5.12,-0.96 4.96,-1.28 4.960001,-1.6 4.799999,-2.08 4.640001,-2.24 4.48,-2.72 4.159999,-3.04 4,-3.2 3.840001,-3.68 3.52,-3.840001 3.200001,-4 2.879997,-4.319997 L 63.52,-38.240002 65.760002,-43.040001 67.68,-47.84 l 1.599999,-4.959999 1.120003,-5.119999 0.959999,-5.120003 0.319999,-5.120003 0.159996,-5.119995 -0.319999,-5.279999 -0.64,-5.120002 -1.119995,-5.120003 -1.279999,-4.959999 -1.920005,-4.959999 -2.079995,-4.639999 -2.400001,-4.64 -2.720001,-4.32 -3.200001,-4.32 -3.360001,-3.84 -3.68,-3.68 -3.84,-3.52 -4.16,-3.04 -4.32,-2.88001 L 32.16,-136 l -4.64,-2.24"
           style="fill:none;stroke:#000000;stroke-width:0.96;stroke-linecap:round;stroke-linejoin:bevel;stroke-miterlimit:10;stroke-dasharray:none;stroke-opacity:1"
           id="path2237" />
      </g>
      <g
         id="g2239"
         transform="translate(302.07999,583.03998)">
        <path
           d="M 0,0 0.16,3.52 0.64,7.04 1.6,10.4 2.72,13.76 4.16,16.959999 6.08,20 8.16,22.719999 10.56,25.280001 13.12,27.68 16,29.76 19.040001,31.68 22.08,33.119999"
           style="fill:none;stroke:#000000;stroke-width:0.96;stroke-linecap:round;stroke-linejoin:bevel;stroke-miterlimit:10;stroke-dasharray:none;stroke-opacity:1"
           id="path2241" />
      </g>
      <g
         id="g2243"
         transform="translate(301.92001,583.03998)">
        <path
           d="m 0,0 v -456.32001 h 108 v -90.08001 h -390.39999 v 90.08001 h 108 V 0"
           style="fill:none;stroke:#000000;stroke-width:0.96;stroke-linecap:round;stroke-linejoin:round;stroke-miterlimit:10;stroke-dasharray:none;stroke-opacity:1"
           id="path2245" />
      </g>
      <g
         id="g2247"
         transform="translate(105.28,616.15997)">
        <path
           d="m 0,0 3.04,-1.44 3.04,-1.92 2.88,-2.08 2.56,-2.4 2.4,-2.56 2.08,-2.72 1.92,-3.04 1.440001,-3.200001 L 20.48,-22.719999 21.440001,-26.08 21.92,-29.6 l 0.16,-3.519999"
           style="fill:none;stroke:#000000;stroke-width:0.96;stroke-linecap:round;stroke-linejoin:bevel;stroke-miterlimit:10;stroke-dasharray:none;stroke-opacity:1"
           id="path2249" />
      </g>
      <g
         id="g2251"
         transform="translate(105.28,616.47998)">
        <path
           d="m 0,0 -4.64,2.24 -4.64,2.4 -4.32,2.88 -4.16,3.04 -3.84,3.52 -3.680001,3.68 -3.359998,3.84 -3.200001,4.32 -2.720001,4.32 -2.399998,4.640001 -2.080002,4.639999 -1.919998,4.96 -1.280003,4.959999 -1.119999,5.120002 L -44,59.68 l -0.32,5.279999 0.16,5.120003 0.32,5.119995 0.959999,5.120003 1.120003,5.120002 1.599998,4.96 1.919998,4.799995 L -36,100 l 2.560001,4.48 2.88,4.32 3.199998,4 3.520001,3.84 3.84,3.68 4,3.2 4.16,3.04 4.48,2.72 4.64,2.24 4.8,2.08001 4.96,1.59999 4.96,1.28 5.120001,0.96 5.279999,0.64 5.12,0.16"
           style="fill:none;stroke:#000000;stroke-width:0.96;stroke-linecap:round;stroke-linejoin:bevel;stroke-miterlimit:10;stroke-dasharray:none;stroke-opacity:1"
           id="path2253" />
      </g>
      <g
         id="g2255">
        <path
           d="m 132.8,754.88 h 0.16001"
           style="fill:none;stroke:#000000;stroke-width:0.96;stroke-linecap:round;stroke-linejoin:round;stroke-miterlimit:10;stroke-dasharray:none;stroke-opacity:1"
           id="path2257" />
      </g>
      <g
         id="g2259"
         transform="translate(132.8,723.35998)">
        <path
           d="m 0,0 3.84,-0.16 3.84,-0.64 3.68,-0.8 3.68,-1.28 3.519999,-1.6 L 21.92,-6.4 24.959999,-8.64 28,-11.2 l 2.559999,-2.72 2.4,-3.039999 2.080002,-3.360001 1.759998,-3.36 1.440003,-3.520001 1.119999,-3.679998 L 40,-34.720001 l 0.48,-3.84 v -3.840001 l -0.48,-3.84 -0.639999,-3.84 -1.119999,-3.679996 -1.440003,-3.520001 -1.759998,-3.52 L 32.959999,-64 l -2.4,-3.040001 L 28,-69.760002 24.959999,-72.32 21.92,-74.559998 18.559999,-76.480003 15.04,-78.080002 11.36,-79.360001 7.68,-80.160004 3.84,-80.800003 0,-80.959999 l -3.84,0.159996 -3.84,0.639999 -3.68,0.800003 -3.68,1.279999 -3.519999,1.599999 L -21.92,-74.559998 -24.959999,-72.32 -28,-69.760002 l -2.559999,2.720001 -2.4,3.040001 -2.080002,3.200001 -1.759998,3.52 -1.440003,3.520001 -1.119999,3.679996 -0.639999,3.84 -0.48,3.84 v 3.840001 l 0.48,3.84 0.639999,3.840002 1.119999,3.679998 1.440003,3.520001 1.759998,3.36 2.080002,3.360001 2.4,3.039999 2.559999,2.72 3.040001,2.56 3.039999,2.24 3.360001,1.92 3.519999,1.6 3.68,1.28 3.68,0.8 3.84,0.64 z"
           style="fill:none;stroke:#000000;stroke-width:0.96;stroke-linecap:round;stroke-linejoin:bevel;stroke-miterlimit:10;stroke-dasharray:none;stroke-opacity:1"
           id="path2261" />
      </g>
      <g
         id="g2263"
         transform="translate(296.64001,723.35998)">
        <path
           d="m 0,0 3.84,-0.16 3.84,-0.64 3.68,-0.8 3.68,-1.28 3.519999,-1.6 L 21.92,-6.4 24.959999,-8.64 28,-11.2 l 2.559999,-2.72 2.4,-3.039999 2.080002,-3.360001 1.759998,-3.36 1.440003,-3.520001 1.119999,-3.679998 L 40,-34.720001 l 0.48,-3.84 v -3.840001 l -0.48,-3.84 -0.639999,-3.84 -1.119999,-3.679996 -1.440003,-3.520001 -1.759998,-3.52 L 32.959999,-64 l -2.4,-3.040001 L 28,-69.760002 24.959999,-72.32 21.92,-74.559998 18.559999,-76.480003 15.04,-78.080002 11.36,-79.360001 7.68,-80.160004 3.84,-80.800003 0,-80.959999 l -3.84,0.159996 -3.84,0.639999 -3.68,0.800003 -3.68,1.279999 -3.519999,1.599999 L -21.92,-74.559998 -24.959999,-72.32 -28,-69.760002 l -2.559999,2.720001 -2.4,3.040001 -2.080002,3.200001 -1.759998,3.52 -1.440003,3.520001 -1.119999,3.679996 -0.639999,3.84 -0.48,3.84 v 3.840001 l 0.48,3.84 0.639999,3.840002 1.119999,3.679998 1.440003,3.520001 1.759998,3.36 2.080002,3.360001 2.4,3.039999 2.559999,2.72 3.040001,2.56 3.039999,2.24 3.360001,1.92 3.519999,1.6 3.68,1.28 3.68,0.8 3.84,0.64 z"
           style="fill:none;stroke:#000000;stroke-width:0.96;stroke-linecap:round;stroke-linejoin:bevel;stroke-miterlimit:10;stroke-dasharray:none;stroke-opacity:1"
           id="path2265" />
      </g>
    </g>
  </g>
</svg>
